<?xml version="1.0" encoding="utf-8"?>
<!-- Generator: Adobe Illustrator 26.0.3, SVG Export Plug-In . SVG Version: 6.00 Build 0)  -->
<svg version="1.1" id="H1_ヘビロテ" xmlns="http://www.w3.org/2000/svg" xmlns:xlink="http://www.w3.org/1999/xlink" x="0px"
	 y="0px" viewBox="0 0 278.6 139.3" style="enable-background:new 0 0 278.6 139.3;" xml:space="preserve">
<style type="text/css">
	.st0{fill:#CE0037;}
	.st1{fill-rule:evenodd;clip-rule:evenodd;fill:#333333;}
	.st2{fill-rule:evenodd;clip-rule:evenodd;fill:#979797;}
</style>
<rect id="長方形_8" x="107.3" y="136.3" class="st0" width="64" height="3"/>
<path id="_헤비로테이션_눈썹_코디네이트" class="st1" d="M16.5,98.8h-3.3l0.4-2.6h3.3L16.5,98.8z M20.2,96.2v-1.7H18
	l0.5-3.4h-0.8l-0.5,3.4H14l0.5-3.4h-0.8l-0.5,3.4h-2.4v1.7H13l-0.4,2.6H10v1.7h2.2l-0.5,3.5h0.8l0.5-3.5h3.2l-0.5,3.5h0.8l0.5-3.5
	h2.5v-1.7h-2.2l0.4-2.6H20.2L20.2,96.2z M24.2,91c-0.1,0.1,0,0.2,0,0.3c0.3,0.4,0.6,0.8,1,1.2c0.1,0.1,0.2,0.1,0.4,0.1
	c0.8,0,2-0.1,2.7-0.1c0.1,0,0.2,0,0.3-0.1c0.2-0.3,0.2-0.7,0.1-1.1c-0.1-0.1-0.2-0.2-0.4-0.2c-1.4,0-2.7-0.1-4.1-0.4V91z M28.8,93.5
	c-0.7,0.1-4.3,0.2-5,0.2c-0.5,0-1.1-0.1-1.6-0.2l-0.1,0.3c0,0.1,0,0.2,0.1,0.2c0.4,0.4,0.8,0.8,1.3,1.1c0.4-0.1,0.8-0.2,1.2-0.2
	c0.6,0,3.9-0.1,4.4-0.1c0.4,0,1.2,0,1.5,0.1c0.3-0.2,0.4-0.6,0.4-0.9c0-0.1-0.1-0.3-0.2-0.3c-0.5-0.1-1-0.2-1.5-0.3L28.8,93.5z
	 M26.9,100.1c-0.9,0.1-1.8-0.6-1.8-1.6c-0.1-0.9,0.6-1.8,1.6-1.8c0.9-0.1,1.8,0.6,1.8,1.6v0.1c0.1,0.8-0.5,1.6-1.4,1.7
	C27,100.1,27,100.1,26.9,100.1L26.9,100.1z M30.6,90.5c0.5,0.2,0.9,0.5,1.2,0.9v5.2c-0.6,0-1.5,0.1-2.1,0c-0.7-0.8-1.8-1.3-2.9-1.2
	c-1.9,0-3.5,1.2-3.5,3s1.6,3,3.5,3s3.5-1.2,3.5-3c0-0.1,0-0.2,0-0.3c0.4-0.1,1-0.1,1.5-0.1v3.3c0,1.2,0.1,2.4,0.2,3.6h1.1
	c0.4-1.4,0.6-2.8,0.6-4.2v-9l0.1-0.9c0-0.2-0.1-0.4-0.2-0.4c-0.8-0.3-1.6-0.5-2.4-0.6c-0.2,0-0.3,0.1-0.3,0.1L30.6,90.5z M33.7,89.3
	c0.5,0.2,1,0.5,1.3,1v11.8c0,1.3,0.1,2.6,0.2,3.9h1.1c0.4-1.5,0.7-3,0.7-4.5V90.6l0.1-1c0-0.2-0.1-0.4-0.2-0.5
	c-0.9-0.3-1.8-0.5-2.7-0.6c-0.1,0-0.2,0-0.3,0.1L33.7,89.3z M51.1,89.3c0.6,0.2,1.1,0.6,1.5,1.1V102c0,1.3,0.1,2.7,0.2,4H54
	c0.4-1.5,0.7-3.1,0.7-4.6V90.7l0.1-1.1c0-0.2-0.1-0.4-0.3-0.5c-0.9-0.3-1.9-0.5-2.9-0.6c-0.2,0-0.2,0.1-0.3,0.1L51.1,89.3z
	 M49.5,99.1c0.2-0.6,0.3-1.2,0.3-1.8l0.1-4.6l0.1-0.9c0-0.2-0.1-0.3-0.2-0.4c-0.8-0.3-1.7-0.5-2.5-0.5c-0.2,0-0.3,0-0.3,0.1
	l-0.2,0.5c0.4,0.2,0.8,0.4,1.1,0.8v2.5L44,94.9v-1.5v-0.8c0-0.2-0.1-0.3-0.2-0.4C43,92,42.1,92,41.3,91.9c-0.1,0-0.2,0-0.3,0.1
	l-0.1,0.6c0.4,0.1,0.8,0.4,1.1,0.7l0.1,6.6c0,0.5,0.1,0.9,0.3,1.4h1.1c0.2-0.2,0.4-0.5,0.5-0.8c1.5,0,4.6-0.1,6-0.1
	c0.2-0.2,0.3-0.5,0.3-0.8c0-0.1-0.1-0.2-0.2-0.2L49.5,99.1z M47.7,96.1v3h-3.8v-3H47.7z M71.8,101.8c-0.5,0-2.1,0.1-3.9,0.1V99
	l4.4-0.1c0.1,0,0.2,0,0.3-0.1c0.2-0.3,0.3-0.6,0.3-0.9c0-0.2-0.1-0.3-0.3-0.4c-0.6-0.1-1.2-0.2-1.9-0.1l-0.5,0.3
	c-1.2,0.1-4.4,0.1-5.8,0.1c-0.2,0-0.4-0.1-0.4-0.3v-0.1v-2l7.7-0.1c0.2-0.2,0.3-0.5,0.3-0.8c0-0.1,0-0.2-0.1-0.2l-0.4-0.2
	c0.2-0.7,0.4-1.5,0.5-2.3l0.3-0.7c0.1-0.1,0.1-0.2,0-0.3l0,0c-0.2-0.1-0.8-0.4-1.1-0.5c-0.1-0.1-0.3-0.1-0.4,0L70,90.6
	c-1,0.1-5.9,0.1-6.8,0.1c-0.6,0-1.3-0.1-1.9-0.2l-0.1,0.3c-0.1,0.1,0,0.2,0,0.2l0,0c0.5,0.5,1.1,0.9,1.7,1.2
	c0.5-0.1,1.1-0.2,1.7-0.3c0.7-0.1,4-0.1,5.3-0.1c0,0.7,0,1.4,0,2.1L69.5,94c-0.8,0.1-3.9,0.1-5.2,0.1C63.7,94,62.1,94,61.4,94
	c-0.1,0-0.2,0-0.2,0.1l-0.1,0.5c0.4,0.1,0.7,0.3,1,0.6v2.2c-0.1,0.7,0.4,1.4,1.1,1.5c0.1,0,0.3,0,0.4,0H66v2.9c-2.2,0-4.3,0-4.9,0
	c-0.8,0-1.5-0.1-2.3-0.2l-0.2,0.3c0,0.1,0,0.2,0.1,0.3c0.6,0.5,1.3,1,2,1.3c0.7-0.2,1.4-0.3,2.1-0.4c1.1-0.1,8.5-0.1,9.8-0.1
	c0.6,0,1.8,0,2.3,0.1c0.3-0.2,0.5-0.6,0.5-1c0-0.2-0.1-0.4-0.3-0.4c-0.7-0.2-1.5-0.3-2.3-0.4L71.8,101.8z M88.6,89.3
	c0.5,0.2,1,0.5,1.3,1v11.8c0,1.3,0.1,2.6,0.2,3.9h1.1c0.4-1.5,0.6-3,0.7-4.5V90.6l0.1-1c0-0.2-0.1-0.4-0.3-0.5
	c-0.8-0.3-1.7-0.5-2.6-0.6c-0.1,0-0.2,0-0.3,0.1L88.6,89.3z M85.5,90.6c0.5,0.2,0.9,0.5,1.2,0.9v4.3c-0.5,0-1,0-1.4,0
	s-0.8,0-1.2-0.1c-0.1-0.1-0.2-0.2-0.3-0.2c-0.4-0.1-0.9-0.1-1.3-0.1L82,95.7c-0.3,0.1-1,0.1-1.5,0.1v-2.4l3.6-0.1
	c0.1,0,0.2,0,0.3-0.1c0.2-0.3,0.3-0.6,0.3-1c0-0.2-0.1-0.3-0.3-0.3l0,0c-0.5-0.1-1-0.1-1.5-0.1l-0.5,0.3c-0.3,0-1.3,0.1-1.9,0.1
	c-0.6-0.1-2.2-0.1-2.8-0.1c-0.1,0-0.2,0-0.2,0.1l-0.1,0.6c0.4,0.1,0.8,0.4,1.1,0.6v5.8c0,0.3,0,0.6,0.1,1c0.2,0.8,0.9,1.3,1.7,1.1
	c0.2,0,0.5,0,0.8-0.1c1.4-0.2,2.8-0.6,4.1-1.2c0.1,0,0.1-0.1,0.1-0.2l-0.1-0.5c0-0.1-0.1-0.1-0.2-0.1c-1.4,0.3-2.7,0.4-4.1,0.5
	c-0.1,0-0.3-0.1-0.3-0.2v-0.1V97l3-0.2c0.1,0,0.3,0,0.4-0.1s0.1-0.2,0.1-0.3c0.3,0.3,0.6,0.5,0.9,0.7c0.3-0.1,0.7-0.2,1-0.2
	c0.2,0,0.4,0,0.6,0v4.5c0,1.2,0.1,2.4,0.2,3.6H88c0.4-1.4,0.6-2.8,0.6-4.2v-9l0.1-0.9c0-0.2-0.1-0.4-0.2-0.4
	c-0.8-0.3-1.6-0.5-2.4-0.6c-0.1,0-0.2,0-0.3,0.1L85.5,90.6z M104.9,96c0.2-2.4-1.5-4.5-3.9-4.7s-4.5,1.5-4.7,3.9s1.5,4.5,3.9,4.7
	c0.1,0,0.3,0,0.4,0c2.2,0.2,4.2-1.5,4.3-3.7C104.9,96.2,104.9,96.1,104.9,96L104.9,96z M102.7,96c-0.1,1.2-1.1,2.1-2.4,2
	c-1.2-0.1-2.1-1.1-2-2.4c0.1-1.1,1-2,2.2-2s2.2,0.9,2.2,2.1C102.7,95.8,102.7,95.9,102.7,96L102.7,96z M108.8,106
	c0.4-1.5,0.7-3.1,0.7-4.6V90.7l0.1-1.1c0-0.2-0.1-0.4-0.3-0.5c-0.9-0.3-1.9-0.5-2.9-0.6c-0.1,0-0.2,0-0.3,0.1l-0.2,0.6
	c0.6,0.2,1.1,0.6,1.5,1.1V102c0,1.3,0.1,2.7,0.2,4H108.8L108.8,106z M125.8,95.5c-0.7,0-1.6,0.1-2.1,0.1s-1,0-1.5-0.1l-0.2,0.3
	c0,0.1,0,0.2,0.1,0.2c0.4,0.4,0.9,0.7,1.4,1c0.4-0.1,0.7-0.2,1.1-0.3c0.3,0,0.8-0.1,1.2-0.1v1.2c0,1.3,0.1,2.5,0.2,3.7h1.2
	c0.5-1.4,0.7-2.9,0.7-4.4v-6.4l0.1-1.1c0-0.2-0.1-0.4-0.3-0.5c-0.9-0.3-1.9-0.5-2.8-0.6c-0.1,0-0.2,0-0.3,0.1l-0.2,0.6
	c0.6,0.2,1,0.6,1.4,1v1.9c-0.7,0-1.6,0.1-2.1,0.1s-1,0-1.5-0.1l-0.2,0.3c0,0.1,0,0.2,0.1,0.2c0.4,0.4,0.9,0.7,1.4,1
	c0.4-0.1,0.7-0.2,1.1-0.3c0.3,0,0.8-0.1,1.3-0.1L125.8,95.5L125.8,95.5z M121.3,98.8c0.1,0.2,0.3,0.3,0.5,0.4c0.4,0.1,0.8,0,1-0.4
	c0.1-0.2,0.1-0.5,0-0.7c-0.2-0.5-0.5-1-0.7-1.5l-0.9-0.3l-1.5-1.7c0.5-0.8,1-1.8,1.2-2.8c0-0.2,0-0.3,0.1-0.5c0-0.2-0.1-0.3-0.3-0.4
	c-0.8-0.4-1.7-0.6-2.6-0.7c-0.1,0-0.2,0-0.3,0.1l-0.3,0.6c0.4,0.2,0.8,0.5,1,0.9c-0.8,2.8-2.4,5.3-4.6,7.2c-0.1,0.1-0.1,0.2,0,0.2
	l0.3,0.3c0.1,0.1,0.2,0.1,0.3,0c1.7-1,3.1-2.3,4.4-3.8L121.3,98.8z M126.1,104.1c-1.1,0.1-3.6,0.1-4.7,0.1c-0.2,0-0.4-0.1-0.4-0.3
	v-0.1v-2v-1c0-0.2-0.1-0.4-0.3-0.4c-0.9-0.1-1.8-0.2-2.7-0.2c-0.1,0-0.2,0-0.3,0.1l-0.1,0.5c0.4,0.1,0.9,0.4,1.2,0.7v2.3
	c0,1.1,0.5,1.6,1.9,1.6l7.7-0.1c0.1,0,0.2,0,0.3-0.1c0.2-0.3,0.3-0.6,0.3-1c0-0.2-0.1-0.3-0.3-0.4c-0.6-0.1-1.3-0.2-1.9-0.1
	L126.1,104.1z M150.4,97.2c-1.3,0.1-9.7,0.2-10.9,0.2c-0.8,0-1.5-0.1-2.3-0.2l-0.2,0.3c0,0.1,0,0.2,0.1,0.3c0.6,0.5,1.3,1,2,1.3
	c0.7-0.2,1.4-0.3,2.1-0.4c0.4,0,1.8-0.1,3.4-0.1v1.3c0,0.9,0.1,1.9,0.2,2.8h1.3c0.4-1.1,0.6-2.2,0.6-3.3v-0.8c1.9,0,3.7,0,4.3,0
	s1.8,0,2.3,0.1c0.3-0.2,0.5-0.6,0.5-1c0-0.2-0.1-0.4-0.3-0.4c-0.7-0.2-1.5-0.3-2.3-0.4L150.4,97.2z M148.1,104.2
	c-1.1,0-3.7,0.1-4.8,0.1c-0.2,0-0.4-0.1-0.4-0.3v-0.1v-1.7v-1c0-0.2-0.1-0.4-0.3-0.5c-0.9-0.1-1.8-0.2-2.7-0.2c-0.1,0-0.2,0-0.3,0.2
	l-0.1,0.5c0.5,0.1,0.9,0.4,1.2,0.6v2c0,1.1,0.5,1.6,1.8,1.6l0,0l7.9-0.1c0.1,0,0.2,0,0.3-0.1c0.2-0.3,0.3-0.6,0.3-1
	c0-0.2-0.1-0.3-0.3-0.4c-0.6-0.1-1.3-0.2-1.9-0.2L148.1,104.2z M140.6,93.9c-0.1,0.9,0.5,1.6,1.4,1.7c0.1,0,0.3,0,0.4,0l8.1-0.1
	c0.1,0,0.2,0,0.3-0.1c0.2-0.3,0.3-0.6,0.3-1c0-0.2-0.1-0.3-0.3-0.4c-0.6-0.1-1.2-0.2-1.8-0.2l-0.7,0.4c-1.1,0.1-3.9,0.1-5.1,0.1
	c-0.2,0-0.4-0.1-0.5-0.3v-0.1v-2.4v-1c0-0.2-0.1-0.4-0.3-0.5c-0.9-0.1-1.7-0.2-2.6-0.2c-0.1,0-0.2,0-0.3,0.2l-0.1,0.5
	c0.4,0.1,0.8,0.3,1.2,0.6L140.6,93.9L140.6,93.9z M169.7,104c0.1-0.5,0.2-1.1,0.2-1.7v-2.1l0.1-0.8c0-0.2-0.1-0.3-0.2-0.4
	c-0.8-0.2-1.6-0.4-2.5-0.5c-0.2,0-0.3,0-0.3,0.1l-0.2,0.6c0.4,0.2,0.8,0.4,1.1,0.7v1.2l-4.7,0.1v-0.5v-0.8c0-0.2-0.1-0.3-0.2-0.4
	l0,0c-0.8-0.2-1.7-0.3-2.5-0.3c-0.2,0-0.3,0.1-0.3,0.1l-0.2,0.5c0.4,0.1,0.8,0.4,1,0.7l0.1,4c0,0.4,0.1,0.9,0.3,1.3h1.2
	c0.2-0.1,0.3-0.3,0.4-0.6c1.8,0,5.5-0.1,7.1-0.1c0.1-0.2,0.2-0.5,0.2-0.8c0-0.1-0.1-0.2-0.2-0.2L169.7,104z M167.9,102.4v1.6
	l-4.7,0.1v-1.6L167.9,102.4z M164.9,97.6c0.1,0.2,0.3,0.3,0.4,0.4c0.4,0.1,0.8,0,1-0.3c0.1-0.2,0.1-0.4,0-0.6
	c-0.2-0.5-0.4-1-0.6-1.4l-0.9-0.4l-0.8-0.9c0.5-0.9,0.8-1.8,1.1-2.7c0-0.2,0.1-0.3,0.1-0.5s-0.1-0.3-0.3-0.4
	c-0.7-0.3-1.5-0.6-2.3-0.8c-0.1,0-0.2,0-0.3,0.1l-0.3,0.6c0.4,0.2,0.7,0.5,0.8,0.9c-0.3,1.3-0.8,2.6-1.4,3.7c0-0.2-0.1-0.3-0.2-0.5
	l-0.7-0.3l-0.5-0.6c0.3-0.6,0.6-1.2,0.8-1.9c0-0.1,0.1-0.3,0-0.4c0-0.2-0.1-0.3-0.3-0.4c-0.7-0.3-1.4-0.6-2.2-0.7
	c-0.1,0-0.2,0-0.3,0.1l-0.3,0.6c0.3,0.2,0.6,0.5,0.8,0.8c-0.5,2-1.6,3.9-3,5.4c-0.1,0.1-0.1,0.2,0,0.3l0.3,0.3
	c0.1,0.1,0.2,0.1,0.3,0c1.1-0.8,2.2-1.8,3-2.9l1,1.3c0.1,0.1,0.2,0.2,0.3,0.3c-0.5,0.8-1.1,1.5-1.7,2.2c-0.1,0.1-0.1,0.2,0,0.2l0,0
	l0.4,0.3c0.1,0.1,0.2,0.1,0.3,0l0,0c1.5-1.1,2.8-2.4,3.8-3.8L164.9,97.6z M168,95.3c0,0.9,0.1,1.9,0.2,2.8h1.2
	c0.4-1.1,0.6-2.2,0.6-3.3v-4.2l0.1-1c0-0.2-0.1-0.4-0.3-0.5c-0.9-0.3-1.8-0.5-2.7-0.6c-0.1,0-0.2,0-0.3,0.1l-0.2,0.6
	c0.5,0.2,1,0.5,1.3,1v3c-0.5,0-1.1,0.1-1.5,0.1s-0.8,0-1.2-0.1l-0.2,0.3c0,0.1,0,0.2,0,0.2c0.3,0.4,0.7,0.7,1.1,1
	c0.4-0.1,0.8-0.2,1.2-0.2c0.1,0,0.3,0,0.6-0.1L168,95.3L168,95.3z M191.2,99.7c0.1,0,0.3,0,0.3-0.2c1-2.3,1.5-4.8,1.7-7.3l0.3-0.8
	c0.1-0.1,0-0.2,0-0.3c-0.3-0.2-0.9-0.5-1.2-0.7c-0.1-0.1-0.3-0.1-0.4,0l-0.8,0.4c-1.4,0.1-6.4,0.2-7.4,0.2c-0.6,0-1.3-0.1-1.9-0.2
	l-0.1,0.3c-0.1,0.1,0,0.2,0.1,0.3c0.5,0.5,1.1,0.9,1.7,1.2c0.6-0.2,1.2-0.3,1.8-0.3c0.8-0.1,4.1-0.1,5.7-0.2c0,0.7,0,1.6,0,2.5
	c-1.8,0.3-5.7,0.5-7.7,0.6c-0.7,0-1.4,0-2.1-0.1l-0.2,0.3c-0.1,0.1,0,0.1,0.1,0.2c0.5,0.5,1.2,0.9,1.8,1.2c0.5-0.2,1.1-0.3,1.6-0.3
	c1.9-0.1,4.7-0.4,6.4-0.7c-0.1,1.2-0.2,2.3-0.4,3.5c0,0.2,0,0.3,0.2,0.3L191.2,99.7z M192.3,101.8c-0.6,0-2.5,0.1-4.6,0.1l0.1-2.4
	l0.1-1c0-0.2,0-0.3-0.2-0.4l0,0c-0.8-0.2-1.7-0.3-2.5-0.3c-0.2,0-0.3,0-0.3,0.1l-0.1,0.6c0.4,0.1,0.7,0.4,1,0.7v2.7
	c-2,0-3.8,0-4.3,0c-0.8,0-1.5-0.1-2.3-0.2L179,102c0,0.1,0,0.2,0.1,0.2c0.6,0.5,1.3,1,2,1.3c0.7-0.2,1.4-0.3,2.1-0.4
	c1.1-0.1,8.5-0.1,9.8-0.1c0.6,0,1.8,0,2.3,0.1c0.3-0.2,0.5-0.6,0.5-1c0-0.2-0.1-0.4-0.3-0.4c-0.7-0.2-1.5-0.3-2.3-0.3L192.3,101.8z
	 M208.2,89.3c0.6,0.2,1.1,0.6,1.4,1.1v7.9c-2.6,0.6-5.2,1-7.9,1c-0.2,0-0.3-0.1-0.3-0.2V99v-5.7l5-0.2c0.1,0,0.3,0,0.3-0.1
	c0.2-0.3,0.3-0.6,0.3-0.9c0-0.2-0.1-0.3-0.3-0.4c-0.6-0.1-1.1-0.1-1.7-0.1l-0.5,0.3c-0.5,0.1-2.3,0.1-3.1,0.2
	c-0.9-0.1-1.9-0.2-2.8-0.2c-0.1,0-0.2,0-0.2,0.1l-0.1,0.6c0.4,0.1,0.9,0.4,1.2,0.7v5.6c0,0.3,0,0.7,0.1,1c0.2,0.8,0.9,1.3,1.7,1.2
	c0.2,0,0.5,0,0.7,0c2.6-0.3,5.2-0.8,7.8-1.6v2.5c0,1.3,0.1,2.7,0.2,4h1.2c0.4-1.5,0.7-3.1,0.7-4.6V90.7l0.1-1.1
	c0-0.2-0.1-0.4-0.3-0.5c-0.9-0.3-1.9-0.5-2.9-0.6c-0.1,0-0.2,0-0.3,0.1L208.2,89.3z M224.3,98.8c0-0.1-0.1-0.2-0.2-0.1l0,0
	c-1.4,0.3-2.8,0.5-4.2,0.5c-0.2,0-0.3-0.1-0.3-0.2v-0.1v-5.2v-1c0-0.2-0.1-0.4-0.3-0.4c-0.8-0.1-1.6-0.2-2.5-0.2
	c-0.1,0-0.2,0-0.3,0.2l-0.1,0.6c0.4,0.2,0.8,0.4,1.1,0.7V99c0,0.3,0,0.6,0.1,0.9c0.2,0.8,1,1.3,1.8,1.2c0.3,0,0.5,0,0.8-0.1
	c1.4-0.2,2.8-0.7,4.1-1.3c0.1,0,0.2-0.1,0.1-0.3L224.3,98.8z M224.2,90.6c0.5,0.2,0.9,0.5,1.2,0.9v3.2c-0.7,0.1-1.8,0.1-2.3,0.1
	s-1,0-1.5-0.1l-0.2,0.3c0,0.1,0,0.2,0,0.2c0.4,0.4,0.8,0.7,1.3,1c0.4-0.1,0.8-0.2,1.2-0.3c0.3,0,0.9,0,1.4-0.1v5.4
	c0,1.2,0.1,2.4,0.2,3.6h1.1c0.4-1.4,0.6-2.8,0.6-4.2v-9l0.1-0.9c0-0.2-0.1-0.4-0.2-0.5c-0.8-0.3-1.6-0.5-2.4-0.5
	c-0.1,0-0.2,0-0.3,0.1L224.2,90.6z M227.4,89.3c0.5,0.2,1,0.5,1.3,1v11.8c0,1.3,0.1,2.6,0.2,3.9h1.1c0.4-1.5,0.7-3,0.7-4.5V90.6
	l0.1-1c0-0.2-0.1-0.4-0.3-0.5c-0.9-0.3-1.7-0.5-2.7-0.6c-0.1,0-0.2,0-0.3,0.1L227.4,89.3z M243.7,96c0.2-2.4-1.5-4.5-3.9-4.7
	s-4.5,1.5-4.7,3.9s1.5,4.5,3.9,4.7c0.1,0,0.3,0,0.4,0c2.2,0.2,4.2-1.5,4.3-3.7C243.7,96.2,243.7,96.1,243.7,96L243.7,96z M241.5,96
	c0.1,1.2-0.8,2.2-2,2.3c-1.2,0.1-2.2-0.8-2.3-2c0-0.1,0-0.2,0-0.3c-0.1-1.2,0.8-2.2,2-2.3c1.2-0.1,2.2,0.8,2.3,2
	C241.5,95.8,241.5,95.9,241.5,96L241.5,96z M247.7,106c0.4-1.5,0.7-3.1,0.7-4.6V90.7l0.1-1.1c0-0.2-0.1-0.4-0.3-0.5
	c-0.9-0.3-1.9-0.5-2.9-0.6c-0.1,0-0.2,0-0.3,0.1l-0.2,0.6c0.6,0.2,1.1,0.6,1.5,1.1V102c0,1.3,0.1,2.7,0.2,4H247.7L247.7,106z
	 M265.5,101.6c-1.3,0.1-9.7,0.2-10.9,0.2c-0.8,0-1.5-0.1-2.3-0.2l-0.2,0.3c0,0.1,0,0.2,0.1,0.3c0.6,0.5,1.3,1,2,1.3
	c0.7-0.2,1.4-0.3,2.1-0.4c1.1-0.1,8.5-0.2,9.8-0.1c0.6,0,1.8,0,2.3,0.1c0.3-0.2,0.5-0.6,0.5-1c0-0.2-0.1-0.4-0.3-0.4
	c-0.7-0.2-1.5-0.3-2.3-0.4L265.5,101.6z M255.5,97.5c-0.1,0.8,0.5,1.6,1.3,1.7c0.2,0,0.3,0,0.5,0l8.2-0.1c0.1,0,0.3,0,0.4-0.1
	c0.2-0.3,0.3-0.6,0.3-0.9c0-0.2-0.1-0.3-0.3-0.4c-0.6-0.1-1.3-0.2-1.9-0.2l-0.6,0.3c-1.1,0.1-4,0.1-5.2,0.1c-0.2,0-0.4-0.1-0.4-0.3
	c0-0.1,0-0.1,0-0.2v-1.7l7.2-0.1c0.1,0,0.3,0,0.4-0.1c0.2-0.2,0.3-0.6,0.3-0.9c0-0.2-0.2-0.3-0.3-0.4c-0.6-0.1-1.1-0.1-1.7-0.1
	l-0.6,0.3c-0.9,0.1-3.7,0.1-5.3,0.1v-2.1l7.7-0.1c0.1,0,0.3,0,0.4-0.1c0.2-0.3,0.3-0.6,0.2-0.9c0-0.2-0.1-0.3-0.3-0.4
	c-0.6-0.1-1.3-0.1-1.9-0.1l-0.6,0.3c-1,0.1-4,0.1-5.4,0.1c-1-0.1-2.1-0.2-3.1-0.2c-0.1,0-0.2,0-0.2,0.1l-0.1,0.6
	c0.5,0.1,0.9,0.4,1.3,0.7L255.5,97.5L255.5,97.5z"/>
<path id="헤비_로테이션" class="st2" d="M106.1,1.6c0,0.1,0,0.1,0,0.2c0.2,0.3,0.4,0.6,0.7,0.8c0.1,0.1,0.2,0.1,0.3,0
	c0.5,0,1.3,0,1.8,0c0.1,0,0.2,0,0.2-0.1c0.1-0.2,0.2-0.5,0.1-0.7c-0.1-0.1-0.2-0.1-0.3-0.1C108,1.7,107.1,1.6,106.1,1.6L106.1,1.6z
	 M109.2,3.3c-0.5,0-2.9,0.1-3.3,0.1s-0.7,0-1-0.1l-0.1,0.2c0,0.1,0,0.1,0,0.1c0.3,0.3,0.6,0.5,0.9,0.7c0.3-0.1,0.5-0.1,0.8-0.1
	c0.4,0,2.6-0.1,3-0.1c0.3,0,0.8,0,1,0c0.2-0.2,0.3-0.4,0.3-0.6c0-0.1,0-0.2-0.1-0.2c-0.3-0.1-0.7-0.1-1-0.2L109.2,3.3z M107.9,7.7
	c-0.6,0-1.2-0.4-1.2-1s0.4-1.2,1-1.2s1.2,0.4,1.2,1v0.1C109,7.2,108.6,7.7,107.9,7.7C108,7.7,108,7.7,107.9,7.7z M110.4,1.3
	c0.3,0.1,0.6,0.3,0.8,0.6v3.5c-0.4,0-1,0-1.4,0c-0.5-0.6-1.2-0.9-1.9-0.8c-1.1-0.2-2.1,0.5-2.3,1.6c-0.2,1.1,0.5,2.1,1.6,2.3
	c0.2,0,0.5,0,0.7,0c1.1,0.1,2.2-0.7,2.3-1.9V6.5c0-0.1,0-0.1,0-0.2c0.3,0,0.7-0.1,1-0.1v2.2c0,0.8,0.1,1.6,0.2,2.4h0.7
	c0.3-0.9,0.4-1.8,0.4-2.8V2V1.4c0-0.1,0-0.2-0.2-0.3c-0.5-0.2-1.1-0.3-1.6-0.4c-0.1,0-0.2,0-0.2,0.1L110.4,1.3z M112.4,0.5
	c0.4,0.1,0.7,0.4,0.9,0.6V9c0,0.9,0.1,1.7,0.1,2.6h0.7c0.3-1,0.4-2,0.5-3V1.3V0.6c0-0.1,0-0.3-0.2-0.3c-0.4-0.1-1-0.3-1.6-0.3
	c-0.1,0-0.2,0-0.2,0.1L112.4,0.5z M123.5,0.5c0.4,0.1,0.7,0.4,1,0.7V9c0,0.9,0.1,1.8,0.1,2.6h0.8c0.3-1,0.5-2,0.5-3.1V1.4V0.7
	c0-0.1,0-0.3-0.2-0.3c-0.6-0.2-1.3-0.3-1.9-0.4c-0.1,0-0.2,0-0.2,0.1L123.5,0.5z M122.4,7c0.1-0.4,0.2-0.8,0.2-1.2v-3V2.2
	c0-0.1,0-0.2-0.2-0.3c-0.5-0.2-1.1-0.3-1.7-0.4c-0.1,0-0.2,0-0.2,0.1l0,0.4c0.3,0.1,0.5,0.3,0.7,0.5v1.7h-2.5v-1V2.6
	c0-0.1,0-0.2-0.2-0.3c-0.6-0.1-1.1-0.2-1.7-0.2c-0.1,0-0.1,0-0.2,0.1l-0.1,0.4c0.3,0.1,0.5,0.3,0.7,0.5l0.1,4.4
	c0,0.3,0.1,0.6,0.2,0.9h0.7c0.2-0.1,0.3-0.3,0.3-0.5c1,0,3.1,0,4,0c0.1-0.2,0.2-0.4,0.2-0.6c0-0.1,0-0.1-0.1-0.2L122.4,7z M121.2,5
	v2h-2.5V5H121.2z M137.7,8.8c-0.3,0-1.4,0.1-2.6,0.1V7h2.9c0.1,0,0.2,0,0.2-0.1c0.1-0.2,0.2-0.4,0.2-0.6c0-0.1-0.1-0.2-0.2-0.3
	c-0.4-0.1-0.8-0.1-1.2-0.1l-0.3,0.2c-0.8,0-2.9,0.1-3.9,0.1c-0.1,0-0.2-0.1-0.3-0.2V5.9V4.6l5.1-0.1c0.1-0.2,0.2-0.3,0.2-0.5
	c0-0.1,0-0.1-0.1-0.2l-0.3-0.1c0.1-0.5,0.3-1,0.3-1.5l0.2-0.5c0.1-0.1,0-0.2,0-0.2l0,0c-0.1-0.1-0.6-0.3-0.7-0.3c-0.1,0-0.2,0-0.3,0
	l-0.5,0.2c-0.7,0-3.9,0.1-4.5,0.1c-0.4,0-0.9,0-1.3-0.1l-0.1,0.2v0.1l0,0c0.3,0.3,0.7,0.6,1.1,0.8c0.4-0.1,0.7-0.1,1.1-0.2
	c0.5,0,2.7-0.1,3.5,0c0,0.5,0,1,0,1.4l-0.3,0.1c-0.6,0-2.6,0.1-3.4,0.1c-0.4,0-1.5-0.1-1.9-0.1c-0.1,0-0.1,0-0.1,0.1l-0.1,0.3
	c0.3,0.1,0.5,0.2,0.7,0.4V6c-0.1,0.5,0.3,0.9,0.8,1c0.1,0,0.2,0,0.3,0h1.6v1.9c-1.5,0-2.9,0-3.3,0c-0.5,0-1,0-1.5-0.1L128.8,9
	c0,0.1,0,0.1,0,0.2c0.4,0.4,0.8,0.7,1.3,0.9c0.4-0.1,0.9-0.2,1.4-0.2c0.7,0,5.7-0.1,6.5-0.1c0.4,0,1.2,0,1.5,0.1
	c0.2-0.1,0.4-0.4,0.4-0.6c0-0.1-0.1-0.2-0.2-0.3c-0.5-0.1-1-0.2-1.5-0.2L137.7,8.8z M148.2,0.5c0.3,0.1,0.7,0.4,0.9,0.6V9
	c0,0.9,0.1,1.7,0.2,2.6h0.7c0.3-1,0.4-2,0.5-3V1.3V0.6c0-0.1,0-0.3-0.2-0.3c-0.6-0.2-1.2-0.3-1.8-0.4c-0.1,0-0.2,0-0.2,0.1
	L148.2,0.5z M146.2,1.3c0.3,0.1,0.6,0.3,0.8,0.6v2.8c-0.3,0-0.7,0-0.9,0c-0.3,0-0.5,0-0.8,0c0-0.1-0.1-0.1-0.2-0.1
	c-0.3,0-0.6,0-0.9,0l-0.3,0.2c-0.2,0-0.7,0.1-1,0.1V3.2l2.4-0.1c0.1,0,0.1,0,0.2-0.1c0.1-0.2,0.2-0.4,0.2-0.6c0-0.1-0.1-0.2-0.2-0.2
	l0,0c-0.3-0.1-0.7-0.1-1-0.1l-0.3,0.2c-0.2,0-0.8,0.1-1.3,0.1c-0.4,0-1.4-0.1-1.9-0.1c-0.1,0-0.1,0-0.2,0.1l-0.1,0.4
	c0.3,0.1,0.5,0.2,0.7,0.4v3.9c0,0.2,0,0.4,0.1,0.6c0.1,0.5,0.6,0.8,1.2,0.8c0.1,0,0.3,0,0.5,0c1-0.1,1.9-0.4,2.8-0.8
	c0.1,0,0.1-0.1,0.1-0.2L146,7.2c0-0.1-0.1-0.1-0.2-0.1l0,0c-0.9,0.2-1.8,0.3-2.8,0.3c-0.1,0-0.2,0-0.2-0.1c0,0,0,0,0-0.1V5.6l2-0.1
	c0.1,0,0.2,0,0.3-0.1c0-0.1,0.1-0.1,0.1-0.2c0.2,0.2,0.4,0.4,0.6,0.5c0.2-0.1,0.4-0.1,0.7-0.1c0.1,0,0.3,0,0.4,0v3
	c0,0.8,0.1,1.6,0.2,2.4h0.7c0.3-0.9,0.4-1.8,0.4-2.8v-6V1.6c0-0.1,0-0.2-0.2-0.3c-0.5-0.2-1.1-0.3-1.6-0.4c-0.1,0-0.2,0-0.2,0.1V1.3
	z M158.5,4.9c0.1-1.6-1-3-2.6-3.2c-1.6-0.1-3,1-3.2,2.6c-0.1,1.6,1,3,2.6,3.2c0.1,0,0.2,0,0.3,0C157.1,7.6,158.4,6.5,158.5,4.9
	C158.5,5,158.5,5,158.5,4.9L158.5,4.9z M157.1,4.9c-0.1,0.8-0.8,1.4-1.6,1.3c-0.8-0.1-1.4-0.8-1.3-1.6c0.1-0.8,0.7-1.3,1.5-1.3
	s1.4,0.6,1.5,1.4C157.1,4.8,157.1,4.9,157.1,4.9L157.1,4.9z M161.1,11.6c0.3-1,0.4-2,0.5-3.1V1.4V0.7c0-0.1,0-0.3-0.2-0.3
	c-0.6-0.2-1.3-0.3-1.9-0.4c-0.1,0-0.1,0-0.2,0.1l-0.2,0.4c0.4,0.1,0.7,0.4,1,0.7v7.7c0,0.6,0.1,2.2,0.1,2.6h0.9V11.6z M171.8,4.6
	c-0.5,0-1.1,0-1.4,0c-0.3,0-0.7,0-1-0.1l-0.1,0.2c0,0.1,0,0.1,0,0.2c0.3,0.3,0.6,0.5,0.9,0.7c0.2-0.1,0.5-0.1,0.7-0.2
	c0.2,0,0.5,0,0.8,0v0.8c0,0.8,0,1.7,0.2,2.5h0.8c0.3-0.9,0.5-1.9,0.5-2.9V1.4V0.7c0-0.1,0-0.3-0.2-0.3c-0.6-0.2-1.2-0.3-1.9-0.4
	c-0.1,0-0.2,0-0.2,0.1l-0.1,0.4c0.4,0.1,0.7,0.4,0.9,0.7v1.3c-0.5,0-1.1,0-1.4,0c-0.3,0-0.7,0-1-0.1l-0.1,0.2c0,0.1,0,0.1,0,0.2
	c0.3,0.3,0.6,0.5,0.9,0.7c0.2-0.1,0.5-0.1,0.7-0.2c0.2,0,0.5,0,0.8,0L171.8,4.6L171.8,4.6z M168.9,6.8c0.1,0.1,0.2,0.2,0.3,0.3
	c0.2,0.1,0.5,0,0.6-0.2c0.1-0.1,0-0.3,0-0.4c-0.1-0.3-0.3-0.7-0.5-1l-0.6-0.2l-1-1.1c0.4-0.6,0.6-1.2,0.8-1.8c0-0.1,0-0.2,0-0.3
	s-0.1-0.2-0.2-0.3c-0.5-0.2-1.1-0.4-1.7-0.5c-0.1,0-0.1,0-0.2,0l-0.2,0.4c0.3,0.1,0.5,0.4,0.7,0.6c-0.5,1.9-1.6,3.5-3.1,4.8
	c0,0-0.1,0.1,0,0.2l0,0l0.2,0.2c0,0,0.1,0,0.2,0c1.1-0.7,2.1-1.5,2.9-2.5L168.9,6.8z M172.1,10.4c-0.7,0-2.4,0-3.1,0
	c-0.1,0-0.3-0.1-0.3-0.2v-0.1V8.7V8.1c0-0.1-0.1-0.3-0.2-0.3c-0.6-0.1-1.2-0.1-1.8-0.1c-0.1,0-0.2,0-0.2,0.1l-0.1,0.4
	c0.3,0.1,0.6,0.2,0.8,0.4v1.6c0,0.6,0.4,1.1,0.9,1.1c0.1,0,0.2,0,0.3,0h5.1c0.1,0,0.2,0,0.2-0.1c0.1-0.2,0.2-0.4,0.2-0.7
	c0-0.1-0.1-0.2-0.2-0.3c-0.4-0.1-0.8-0.1-1.3-0.1L172.1,10.4z"/>
<g>
	<g>
		<g>
			<g>
				<path d="M15.4,49.6H4.2v12.6H0V33.3h4.2v12.4h11.1V33.3h4.2v28.8h-4.2V49.6z"/>
				<path d="M25.1,33.3h17.8v4.1H29.3v8.2H41v3.9H29.3v8.5h13v4.1H25.1V33.3z"/>
				<path d="M62,55.8H51.5l-2.1,6.5h-4.5L55,33.4h3.6l10.1,28.8h-4.5L62,55.8z M60.8,51.9l-4.1-12.7h-0.1l-4,12.6h8.2V51.9z"/>
				<path d="M65.4,33.3h4.5l6.5,22.1h0.1l6.3-22.1h4.5l-9.2,29h-3.3L65.4,33.3z"/>
				<path d="M97,50.4l-8.4-17h4.5L99,46.1l5.9-12.8h4.5l-8.5,17v11.9h-4V50.4H97z"/>
				<path d="M120,33.3h10.9c2.3,0,4.2,0.7,5.7,1.9c1.8,1.4,2.7,3.5,2.8,6.1c0,3.9-1.9,6.6-5.5,8l6.5,12.8h-5l-5.8-12.4h-5.5v12.4
					h-4.2V33.3H120z M124.2,46h6.5c1.6,0,2.8-0.6,3.6-1.4s1.2-1.9,1.2-3.2c0-1.6-0.4-2.6-1.4-3.2c-0.7-0.6-1.8-0.9-3.1-0.9h-6.7
					C124.2,37.2,124.2,46,124.2,46z"/>
				<path d="M142.6,47.8c0-3.3,0.1-5.6,0.3-6.8c0.2-1.1,0.6-2,0.9-2.8c0.7-1.3,1.8-2.6,3.2-3.6c1.4-1,3.3-1.6,5.5-1.7
					c2.2,0,4.1,0.6,5.6,1.7c1.4,1,2.6,2.2,3.2,3.6c0.4,0.7,0.8,1.7,1,2.8c0.1,1.1,0.2,3.3,0.2,6.8c0,3.3-0.1,5.6-0.2,6.7
					c-0.2,1.1-0.6,2.1-1,2.8c-0.7,1.3-1.7,2.6-3.2,3.6c-1.4,1-3.3,1.6-5.6,1.7c-2.2,0-4-0.6-5.5-1.7c-1.4-1-2.6-2.2-3.2-3.6
					c-0.2-0.4-0.4-0.9-0.6-1.2c-0.1-0.4-0.3-0.9-0.3-1.6C142.7,53.4,142.6,51.2,142.6,47.8z M146.8,47.8c0,2.9,0.1,4.8,0.3,5.8
					c0.2,1,0.6,1.8,1.1,2.5c0.4,0.6,1,1.1,1.8,1.4c0.7,0.4,1.6,0.7,2.6,0.7c1,0,1.9-0.2,2.7-0.7c0.7-0.3,1.2-0.9,1.7-1.4
					c0.6-0.7,0.9-1.4,1.1-2.5c0.2-1,0.3-2.9,0.3-5.8s-0.1-4.8-0.3-5.8s-0.6-1.8-1.1-2.5c-0.4-0.6-1-1.1-1.7-1.4
					c-0.8-0.3-1.7-0.6-2.7-0.7c-1,0-1.9,0.2-2.6,0.7c-0.8,0.4-1.3,0.9-1.8,1.4c-0.6,0.7-0.9,1.4-1.1,2.5S146.8,44.9,146.8,47.8z"/>
				<path d="M171.4,37.2h-7.7v-3.9h19.6v3.9h-7.7v25.1h-4.2L171.4,37.2L171.4,37.2z"/>
				<path d="M197.5,55.8h-10.6l-2.1,6.5h-4.5l10.1-29h3.6l10.1,28.8h-4.5L197.5,55.8z M196.4,51.9l-4-12.6h-0.1l-4,12.6H196.4z"/>
				<path d="M208.7,37.2h-7.7v-3.9h19.6v3.9H213v25.1h-4.2L208.7,37.2L208.7,37.2z"/>
				<path d="M233.7,47.8c0-3.3,0.1-5.6,0.3-6.8c0.2-1.1,0.6-2,0.9-2.8c0.7-1.3,1.8-2.6,3.2-3.6s3.3-1.6,5.5-1.7
					c2.2,0,4.1,0.6,5.6,1.7c1.4,1,2.6,2.2,3.2,3.6c0.4,0.7,0.8,1.7,1,2.8c0.1,1.1,0.2,3.3,0.2,6.8c0,3.3-0.1,5.6-0.2,6.7
					c-0.2,1.1-0.6,2.1-1,2.8c-0.7,1.3-1.7,2.6-3.2,3.6c-1.4,1-3.3,1.6-5.6,1.7c-2.2,0-4-0.6-5.5-1.7c-1.4-1-2.6-2.2-3.2-3.6
					c-0.2-0.4-0.4-0.9-0.6-1.2c-0.1-0.4-0.3-0.9-0.3-1.6C233.8,53.4,233.7,51.2,233.7,47.8z M237.9,47.8c0,2.9,0.1,4.8,0.3,5.8
					c0.2,1,0.6,1.8,1.1,2.5c0.4,0.6,1,1.1,1.8,1.4c0.7,0.4,1.6,0.7,2.6,0.7c1,0,1.9-0.2,2.7-0.7c0.7-0.3,1.2-0.9,1.7-1.4
					c0.6-0.7,0.9-1.4,1.1-2.5c0.2-1,0.3-2.9,0.3-5.8s-0.1-4.8-0.3-5.8c-0.2-1-0.6-1.8-1.1-2.5c-0.4-0.6-1-1.1-1.7-1.4
					c-0.8-0.3-1.7-0.6-2.7-0.7c-1,0-1.9,0.2-2.6,0.7c-0.8,0.4-1.3,0.9-1.8,1.4c-0.6,0.7-0.9,1.4-1.1,2.5
					C238,43,237.9,44.9,237.9,47.8z"/>
				<path d="M257.7,33.3h4l12.7,20.5h0.1V33.3h4.2v28.8h-4l-12.7-20.5H262v20.5h-4.2V33.3z"/>
			</g>
			<polygon points="228.1,33.3 218,62.3 222.3,62.3 232.6,33.3 			"/>
		</g>
	</g>
</g>
</svg>
