<svg id="H2" xmlns="http://www.w3.org/2000/svg" width="121.752" height="50.125" viewBox="0 0 121.752 50.125">
  <metadata><?xpacket begin="﻿" id="W5M0MpCehiHzreSzNTczkc9d"?>
<x:xmpmeta xmlns:x="adobe:ns:meta/" x:xmptk="Adobe XMP Core 5.6-c140 79.160451, 2017/05/06-01:08:21        ">
   <rdf:RDF xmlns:rdf="http://www.w3.org/1999/02/22-rdf-syntax-ns#">
      <rdf:Description rdf:about=""/>
   </rdf:RDF>
</x:xmpmeta>
                                                                                                    
                                                                                                    
                                                                                                    
                                                                                                    
                                                                                                    
                                                                                                    
                                                                                                    
                                                                                                    
                                                                                                    
                                                                                                    
                                                                                                    
                                                                                                    
                                                                                                    
                                                                                                    
                                                                                                    
                                                                                                    
                                                                                                    
                                                                                                    
                                                                                                    
                                                                                                    
                           
<?xpacket end="w"?></metadata>
<defs>
    <style>
      .cls-1 {
        fill: #ce0034;
      }

      .cls-2 {
        fill: #333;
        fill-rule: evenodd;
      }
    </style>
  </defs>
  <rect id="長方形_28_のコピー_3" data-name="長方形 28 のコピー 3" class="cls-1" x="30.687" y="47.125" width="63.875" height="3"/>
  <path id="BRAND" class="cls-2" d="M951.13,762.963a4.29,4.29,0,0,0,1.123-2.941,3.636,3.636,0,0,0-1.591-3.161,6.719,6.719,0,0,0-3.823-.882l-2.172.055q-2.768.092-3.705,0.091-0.609,0-1.681-.051l-1.368-.051h-1.235v0.923h1.012a1.718,1.718,0,0,1,1.591.571,15.686,15.686,0,0,1,.268,4.145v9.126q0,2.227-.1,3.97a1.492,1.492,0,0,1-.2.776,3.451,3.451,0,0,1-1.093.674v0.659l1.235-.043q1.085-.06,1.829-0.059,1.027,0,2.514.068l1.176,0.034a8.949,8.949,0,0,0,6.032-2.03,6.169,6.169,0,0,0,2.373-4.831,4.4,4.4,0,0,0-1.414-3.467,7.654,7.654,0,0,0-4.611-1.459A8.493,8.493,0,0,0,951.13,762.963Zm-8.784-.158q0-3.618.134-5.4a14.722,14.722,0,0,1,2.261-.191,5.281,5.281,0,0,1,3.421.9,3.189,3.189,0,0,1,1.072,2.586,3.61,3.61,0,0,1-1.28,2.981,6.809,6.809,0,0,1-4.239,1.032q-0.625,0-1.369-.044v-1.86Zm0.059,11.675c0-.352-0.014-0.859-0.044-1.524l-0.015-1.845v-5.2q0.952-.043,1.711-0.044a10.367,10.367,0,0,1,3.682.477,3.722,3.722,0,0,1,1.792,1.508,4.895,4.895,0,0,1,.64,2.615,4.946,4.946,0,0,1-1.451,3.757,5.677,5.677,0,0,1-4.083,1.385,16.283,16.283,0,0,1-2.291-.2,8.537,8.537,0,0,0,.059-0.923h0Zm31.2-10.357a5.128,5.128,0,0,0,1.51-3.647,4.175,4.175,0,0,0-.692-2.417,4.321,4.321,0,0,0-2.023-1.546,10.989,10.989,0,0,0-3.9-.534q-0.937,0-3.079.073-1.845.073-2.827,0.073-1.458,0-4.225-.1v0.923h0.8q1.516,0,1.792.542a22.372,22.372,0,0,1,.276,5.083v7.045A32.51,32.51,0,0,1,961,775.4a1.526,1.526,0,0,1-1.517.55h-1.116v0.922q3.348-.1,4.627-0.1,1.621,0,4.091.1v-0.922h-1.161q-1.383,0-1.636-.564a30.417,30.417,0,0,1-.253-5.735v-7.075q0-2.652.179-4.981a9.158,9.158,0,0,1,3.139-.571,5,5,0,0,1,3.436,1.062,3.753,3.753,0,0,1,1.19,2.951,4.3,4.3,0,0,1-1.406,3.37,5.62,5.62,0,0,1-3.89,1.259q-0.417,0-1.279-.073l-0.149.5q1.682,1.846,3.154,3.779l5.266,7a16.529,16.529,0,0,1,1.785-.1q0.923,0,2.157.1v-0.922h-0.387a1.109,1.109,0,0,1-.52-0.132,5.238,5.238,0,0,1-1.012-1.07l-2.856-3.647q-2.157-2.739-3.615-4.8A8.117,8.117,0,0,0,973.605,764.123Zm24.52,9.785a5.772,5.772,0,0,1,.446,1.377,0.488,0.488,0,0,1-.223.411,2.688,2.688,0,0,1-.937.161l-1.473.088v0.922q2.723-.1,4.362-0.1,1.755,0,3.69.1v-0.922a4.911,4.911,0,0,1-1.48-.213,1.564,1.564,0,0,1-.58-0.512,17.5,17.5,0,0,1-1.01-2.117l-7.526-17.241h-1.011q-0.6,1.64-2.232,5.273l-4.09,9.126q-1.1,2.447-2.157,4.556a2.135,2.135,0,0,1-.648.9,3.3,3.3,0,0,1-1.346.212l-0.446.015v0.922q1.621-.1,3.764-0.1,1.785,0,3.213.1v-0.922l-1.428-.162a2.26,2.26,0,0,1-.945-0.234,0.578,0.578,0,0,1-.186-0.483,11.866,11.866,0,0,1,1-2.871l1.008-2.359h8.606Zm-5.934-14.073,3.745,8.8h-7.494Zm31.039,12.5q1.815,2.2,3.47,4a1.932,1.932,0,0,0,.62.462,17.11,17.11,0,0,0,2.35.446q-0.225-3.705-.23-6.372V764.27q0-5.815.13-6.416a1.373,1.373,0,0,1,1.59-.908h1.15v-0.923q-2.19.1-3.57,0.1-1.335,0-3.72-.1v0.923l1.11,0.1c1.01,0.1,1.58.33,1.72,0.7a42.482,42.482,0,0,1,.22,6.453v9.4q-1.23-1.288-3.97-4.6l-5.09-6.152q-1.395-1.7-2.7-3.377c-0.87-1.118-1.79-2.268-2.78-3.449-0.85.068-1.63,0.1-2.35,0.1q-0.99,0-2.88-.1v0.923h0.92a2.012,2.012,0,0,1,1.09.249,1.91,1.91,0,0,1,.58.564,2.444,2.444,0,0,1,.23,1.164c0.03,1.338.05,2.691,0.05,4.058v7.28c0,1.846-.06,3.306-0.17,4.38a1.584,1.584,0,0,1-.37,1.04,2.048,2.048,0,0,1-1.26.264h-1.07v0.922q3.255-.1,4.17-0.1c0.88,0,1.85.034,2.94,0.1v-0.922l-0.96-.074a3.021,3.021,0,0,1-1.43-.329,2.346,2.346,0,0,1-.35-1.268c-0.09-.908-0.13-2.515-0.13-4.821V759.328Zm14.68,3.868v0.7c1.24-.117,2.26-0.175,3.07-0.175,0.47,0,1.61.034,3.4,0.1l1.83,0.044a12.284,12.284,0,0,0,8.85-3.237,10.868,10.868,0,0,0,3.38-8.189,9.969,9.969,0,0,0-.88-4.314,7.936,7.936,0,0,0-2.56-3.105,9.3,9.3,0,0,0-3.74-1.648,19.365,19.365,0,0,0-4.04-.381l-3.25.059-4,.029c-0.57,0-1.67-.024-3.31-0.073v0.923l1.19,0.175a2.818,2.818,0,0,1,1.23.323,2.971,2.971,0,0,1,.28,1.274c0.11,1.26.17,2.759,0.17,4.5v4.248q0,5.668-.23,7.94Zm4.42-5.844v-9.581a25.373,25.373,0,0,1,.18-3.193,26.577,26.577,0,0,1,3.7-.308q4.47,0,6.78,2.242t2.31,6.518q0,4.908-2.78,7.471a9.236,9.236,0,0,1-6.47,2.109,24.8,24.8,0,0,1-3.54-.293q-0.18-2.314-.18-4.965h0Z" transform="translate(-936.688 -755.875)"/>
</svg>
