<svg xmlns="http://www.w3.org/2000/svg" viewBox="0 0 37.28 37.28"><defs><style>.cls-1{fill:#fff;}</style></defs><g id="레이어_2" data-name="레이어 2"><g id="레이어_1-2" data-name="레이어 1"><path class="cls-1" d="M18.64,0A18.64,18.64,0,1,0,37.28,18.64,18.65,18.65,0,0,0,18.64,0Zm0,36.69a18,18,0,1,1,18-18A18.07,18.07,0,0,1,18.64,36.69Z"/><polygon class="cls-1" points="18 7.43 17.93 7.3 17.91 7.47 18 7.43"/><path class="cls-1" d="M21.39,4.69c.06-.46-.23-.79-.79-.87l-.36,0L20,5.23l.34.06C20.94,5.37,21.32,5.15,21.39,4.69Z"/><path class="cls-1" d="M7.76,10.8a1.82,1.82,0,0,0,1.16.45,1.13,1.13,0,0,0,.83-.36c.53-.54.41-1.27-.29-1.87A1.42,1.42,0,0,0,7.41,9C6.94,9.51,7.08,10.22,7.76,10.8Z"/><path class="cls-1" d="M12.66,29c-.62-.33-1.28,0-1.71.77A1.91,1.91,0,0,0,10.77,31a1.2,1.2,0,0,0,.53.73c.65.39,1.33.11,1.77-.71A1.43,1.43,0,0,0,12.66,29Z"/><path class="cls-1" d="M24.62,8.36c.64.42,1.33.17,1.79-.63a1.43,1.43,0,0,0-.34-2c-.62-.35-1.29-.09-1.74.69a1.92,1.92,0,0,0-.21,1.23A1.13,1.13,0,0,0,24.62,8.36Z"/><path class="cls-1" d="M10.18,20.73c-.06-.25-.12-.51-.16-.77a.22.22,0,0,0-.25-.19.22.22,0,0,0-.19.26,7.25,7.25,0,0,0,.16.81A.22.22,0,0,0,10,21h0A.23.23,0,0,0,10.18,20.73Z"/><path class="cls-1" d="M11.62,19.23h1.64a.6.6,0,0,0,0-1.18H11.62a.6.6,0,0,0,0,1.18Z"/><path class="cls-1" d="M10.59,22a.23.23,0,1,0-.42.18c.11.25.23.5.35.75a.22.22,0,0,0,.2.12.2.2,0,0,0,.11,0,.22.22,0,0,0,.09-.3C10.8,22.47,10.69,22.22,10.59,22Z"/><path class="cls-1" d="M13.06,25.34a.21.21,0,0,0-.31,0,.23.23,0,0,0,0,.32c.22.17.44.34.67.5a.19.19,0,0,0,.12,0,.23.23,0,0,0,.19-.1.22.22,0,0,0-.06-.31Q13.38,25.6,13.06,25.34Z"/><path class="cls-1" d="M11.62,23.81a.22.22,0,0,0-.31,0,.23.23,0,0,0-.05.32,8.06,8.06,0,0,0,.52.64.25.25,0,0,0,.17.08.22.22,0,0,0,.15-.06.23.23,0,0,0,0-.32C12,24.23,11.78,24,11.62,23.81Z"/><path class="cls-1" d="M15.55,26.79c-.24-.09-.48-.2-.72-.31a.23.23,0,0,0-.3.1.23.23,0,0,0,.1.31c.25.12.51.23.76.33h.08a.22.22,0,0,0,.22-.15A.23.23,0,0,0,15.55,26.79Z"/><path class="cls-1" d="M14.12,10.66a7.42,7.42,0,0,0-.7.44.24.24,0,0,0-.06.32.25.25,0,0,0,.19.09.22.22,0,0,0,.13,0,7.57,7.57,0,0,1,.67-.42.23.23,0,0,0,.08-.31A.24.24,0,0,0,14.12,10.66Z"/><path class="cls-1" d="M10.61,14.69a.2.2,0,0,0,.11,0,.22.22,0,0,0,.2-.12c.12-.23.25-.46.39-.68a.24.24,0,0,0-.06-.32.25.25,0,0,0-.32.07q-.23.35-.42.72A.23.23,0,0,0,10.61,14.69Z"/><path class="cls-1" d="M18.05,11.62v1.64a.6.6,0,0,0,1.18,0V11.62a.6.6,0,0,0-1.18,0Z"/><path class="cls-1" d="M24.21,11.93a.2.2,0,0,0,.14.06.23.23,0,0,0,.18-.09.22.22,0,0,0,0-.31c-.22-.18-.44-.35-.67-.51a.23.23,0,0,0-.25.38C23.79,11.61,24,11.77,24.21,11.93Z"/><path class="cls-1" d="M9.92,18.65h0c0-.26,0-.52,0-.78a.24.24,0,0,0-.21-.25.23.23,0,0,0-.24.21,7.5,7.5,0,0,0,0,.82h0a.23.23,0,1,0,.45,0Z"/><path class="cls-1" d="M17.55,10h0c.26,0,.53-.05.79-.06a.23.23,0,0,0,.22-.23.22.22,0,0,0-.23-.22,7.54,7.54,0,0,0-.83.06.23.23,0,0,0-.2.25A.23.23,0,0,0,17.55,10Z"/><path class="cls-1" d="M9.9,16.73h0a.22.22,0,0,0,.22-.18c.07-.25.14-.51.23-.75a.23.23,0,0,0-.15-.29.22.22,0,0,0-.28.14c-.09.26-.17.53-.24.8A.23.23,0,0,0,9.9,16.73Z"/><path class="cls-1" d="M11.94,13a.25.25,0,0,0,.17-.08,7.4,7.4,0,0,1,.55-.57.23.23,0,0,0-.31-.33,8.21,8.21,0,0,0-.58.6.23.23,0,0,0,0,.32A.22.22,0,0,0,11.94,13Z"/><path class="cls-1" d="M16.16,9.81a8.1,8.1,0,0,0-.79.26.23.23,0,0,0,.08.44l.09,0c.24-.09.49-.17.74-.24a.22.22,0,0,0,.16-.28A.23.23,0,0,0,16.16,9.81Z"/><path class="cls-1" d="M23.59,25.81a7.57,7.57,0,0,1-.67.42.23.23,0,0,0-.08.31.23.23,0,0,0,.2.11l.11,0a7.42,7.42,0,0,0,.7-.44.22.22,0,0,0,.06-.31A.24.24,0,0,0,23.59,25.81Z"/><path class="cls-1" d="M27.38,20.56a.23.23,0,0,0-.28.16,6.61,6.61,0,0,1-.22.76.23.23,0,0,0,.14.29h.07a.23.23,0,0,0,.22-.15,7.32,7.32,0,0,0,.23-.8A.22.22,0,0,0,27.38,20.56Z"/><path class="cls-1" d="M27.1,16.54c.06.25.11.51.15.77a.24.24,0,0,0,.23.19h0a.23.23,0,0,0,.19-.26c0-.27-.1-.55-.16-.81a.23.23,0,1,0-.44.11Z"/><path class="cls-1" d="M27.35,18.62v0c0,.26,0,.53,0,.79a.22.22,0,0,0,.2.24h0a.22.22,0,0,0,.22-.2,7.69,7.69,0,0,0,0-.83v0a.23.23,0,0,0-.23-.23A.23.23,0,0,0,27.35,18.62Z"/><path class="cls-1" d="M26.69,15.29a.23.23,0,0,0,.21.14l.08,0a.22.22,0,0,0,.12-.3c-.1-.25-.22-.5-.35-.75a.23.23,0,0,0-.31-.09.22.22,0,0,0-.09.3C26.47,14.81,26.59,15.05,26.69,15.29Z"/><path class="cls-1" d="M25.66,18.05H24a.6.6,0,0,0,0,1.18h1.64a.6.6,0,0,0,0-1.18Z"/><path class="cls-1" d="M18.64,1.3A17.34,17.34,0,1,0,36,18.64,17.36,17.36,0,0,0,18.64,1.3Zm10,10.18c.18-.13.21-.32.14-.77s-.08-.52-.09-.62a1.5,1.5,0,0,1,.59-1.59,1.47,1.47,0,0,1,1.43-.19,2.33,2.33,0,0,1,.88.68,3.13,3.13,0,0,1,.65,1.64l-1.05.4a1.89,1.89,0,0,0-.31-1.14.47.47,0,0,0-.63-.16c-.21.13-.24.3-.16.82a5.51,5.51,0,0,1,.11,1.19,1.49,1.49,0,0,1-.58,1,1.75,1.75,0,0,1-2.5-.57,3.31,3.31,0,0,1-.66-1.82l1.1-.64a2.39,2.39,0,0,0,.29,1.54A.52.52,0,0,0,28.67,11.48Zm-.36,7.16A9.67,9.67,0,1,1,18.64,9,9.67,9.67,0,0,1,28.31,18.64Zm-1.58-14a2.64,2.64,0,0,1,1.35,1.75,2.84,2.84,0,0,1-.31,2,2.64,2.64,0,0,1-3.79,1,2.63,2.63,0,0,1-1-3.72A2.69,2.69,0,0,1,26.73,4.66Zm-8.4,2.72.09,0-.07-.14L19,2.51l.45,0c.39,0,.92.07,1.1.1a2.62,2.62,0,0,1,1.78.76,1.77,1.77,0,0,1,.38,1.45,1.79,1.79,0,0,1-1.12,1.43,2.76,2.76,0,0,1-1.35.09l-.38-.07-.22,1.56-1.38-.2ZM11.87,4.14l2.4,2.54.15-3.48,1-.39L17.93,7.3l0,.17-1.2.45-1.3-2.5-.14,3-.82.31L12.37,6.57,13,9.29l-1.09.41-1.1-5.17Zm-5.36,4a2.59,2.59,0,0,1,2-1,2.78,2.78,0,0,1,1.87.67,2.65,2.65,0,0,1,.32,3.92A2.64,2.64,0,0,1,6.84,12,2.68,2.68,0,0,1,6.51,8.13Zm-2.95,5a2.92,2.92,0,0,1,1.07-1.52l.83,1a1.55,1.55,0,0,0-.64.83,1.31,1.31,0,0,0,1,1.67,1.38,1.38,0,0,0,1.81-.81,1.57,1.57,0,0,0,0-1.15L8.8,13a3,3,0,0,1,0,2A2.63,2.63,0,0,1,5.3,16.54,2.65,2.65,0,0,1,3.56,13.14Zm1.56,8a.58.58,0,1,1,.58.59A.58.58,0,0,1,5.12,21.14Zm2.37,7.34a1.63,1.63,0,0,0,1,.5l-.35,1.19a2.92,2.92,0,0,1-1.78-.93,2.62,2.62,0,0,1,.17-3.8,2.66,2.66,0,0,1,3.82-.06A2.87,2.87,0,0,1,11.25,27L10,27.31a1.56,1.56,0,0,0-.46-.94,1.31,1.31,0,0,0-1.92.12A1.39,1.39,0,0,0,7.49,28.48Zm7,3.14a2.64,2.64,0,0,1-3.75,1.21A2.63,2.63,0,0,1,9.6,29.14a2.69,2.69,0,0,1,3.69-1.21,2.58,2.58,0,0,1,1.4,1.71A2.86,2.86,0,0,1,14.44,31.62Zm4.23-.92-1.79-.24-.14,1.06,1.58.21-.15,1.1-1.58-.22-.25,1.9L15,34.32l.7-5.21,3.16.43Zm2.85,3.74-1.37.24-.92-5.18L22.37,29l.21,1.15-1.78.31L21,31.46l1.57-.28.19,1.09-1.57.28Zm3.75-1.11-2.5-4.62,2.85-1.54.51.95-1.67.9.45.83,1.5-.81.49.9-1.5.82.52,1,2-1.06.42,1Zm4.63-3.15L26,26.62l2.19-2.39L29,25l-1.29,1.39.7.64,1.15-1.25.76.69L29.19,27.7l.8.74L31.5,26.8l.73.84Zm1.83-8.45a.59.59,0,1,1,.58-.59A.58.58,0,0,1,31.73,21.73Zm1.06-8-.9.29.53,1.62-1,.32-.53-1.63-1,.34.69,2.13L29.5,17l-1.08-3.3,5-1.61,1,3.09-1,.34Z"/><path class="cls-1" d="M25.17,12.53a.23.23,0,0,0,0,.32,7.37,7.37,0,0,1,.5.61.21.21,0,0,0,.18.09.23.23,0,0,0,.14,0,.23.23,0,0,0,0-.32,8.06,8.06,0,0,0-.52-.64A.22.22,0,0,0,25.17,12.53Z"/><path class="cls-1" d="M22.64,10.39c-.25-.12-.51-.23-.76-.33a.22.22,0,1,0-.16.42c.24.1.49.2.72.32l.1,0a.23.23,0,0,0,.2-.13A.22.22,0,0,0,22.64,10.39Z"/><path class="cls-1" d="M19.7,27.29c-.26,0-.53.05-.79.06a.23.23,0,0,0,0,.45h0a7.54,7.54,0,0,0,.83-.06.23.23,0,0,0-.05-.45Z"/><path class="cls-1" d="M19.23,25.65V24a.6.6,0,0,0-1.18,0v1.63a.59.59,0,0,0,1.18,0Z"/><path class="cls-1" d="M20.55,9.67a7.76,7.76,0,0,0-.82-.13.21.21,0,0,0-.25.19.23.23,0,0,0,.19.26q.41,0,.78.12h.05a.22.22,0,0,0,.22-.18A.23.23,0,0,0,20.55,9.67Z"/><path class="cls-1" d="M25.16,24.42c-.17.19-.36.38-.55.56a.23.23,0,0,0,0,.32.25.25,0,0,0,.17.08.18.18,0,0,0,.15-.07,8,8,0,0,0,.58-.59.23.23,0,1,0-.34-.3Z"/><path class="cls-1" d="M26.66,22.59a.23.23,0,0,0-.3.1c-.12.23-.26.46-.4.68a.22.22,0,0,0,.07.31.19.19,0,0,0,.12,0,.24.24,0,0,0,.19-.1q.22-.36.42-.72A.22.22,0,0,0,26.66,22.59Z"/><path class="cls-1" d="M17.59,27.29a6.51,6.51,0,0,1-.77-.13.23.23,0,0,0-.27.18.23.23,0,0,0,.17.27c.27.05.55.1.82.13h0a.22.22,0,0,0,.22-.2A.22.22,0,0,0,17.59,27.29Z"/><path class="cls-1" d="M21.73,26.79,21,27a.21.21,0,0,0-.15.27.23.23,0,0,0,.22.17h.06a8.1,8.1,0,0,0,.79-.26.23.23,0,1,0-.17-.42Z"/><path class="cls-1" d="M23.8,13.67h0a.26.26,0,0,0-.31,0l-6.24,3.31a.23.23,0,0,0-.11.11L13.82,23.3a.26.26,0,0,0,.35.35l6.24-3.35a.23.23,0,0,0,.11-.11L23.84,14A.26.26,0,0,0,23.8,13.67Zm-3.72,6.21-.6-.6A.94.94,0,1,1,18.15,18l-.59-.59L23,14.49Z"/><path class="cls-1" d="M19.26,19.06a.63.63,0,1,0-.89,0A.64.64,0,0,0,19.26,19.06Z"/></g></g></svg>