<?xml version="1.0" encoding="utf-8"?>
<!-- Generator: Adobe Illustrator 23.0.1, SVG Export Plug-In . SVG Version: 6.00 Build 0)  -->
<svg version="1.1" id="H1_ヒロインメイク" xmlns="http://www.w3.org/2000/svg" xmlns:xlink="http://www.w3.org/1999/xlink"
	 x="0px" y="0px" viewBox="0 0 330.8 139.3" style="enable-background:new 0 0 330.8 139.3;" xml:space="preserve">
<style type="text/css">
	.st0{fill:#CE0037;}
	.st1{fill-rule:evenodd;clip-rule:evenodd;fill:#333333;}
	.st2{fill-rule:evenodd;clip-rule:evenodd;}
	.st3{fill-rule:evenodd;clip-rule:evenodd;fill:#979797;}
</style>
<rect id="長方形_8" x="133" y="136.3" class="st0" width="64" height="3"/>
<path id="히로인은_언제나_완벽히_아름다워야_한다" class="st1" d="M13.4,105c0.4-1.5,0.7-3.1,0.7-4.6V89.7l0.1-1.1
	c0-0.2-0.1-0.4-0.3-0.5C13,87.8,12,87.6,11,87.6c-0.1,0-0.2,0-0.3,0.1l-0.2,0.6c0.6,0.2,1.1,0.6,1.5,1.1V101c0,1.3,0.1,2.7,0.2,4
	H13.4L13.4,105z M2.5,89.5c0,0.1,0,0.2,0,0.2c0.3,0.5,0.7,1,1.2,1.4c0.1,0.1,0.3,0.1,0.5,0.1c0.8-0.1,2.2-0.1,3-0.1
	c0.1,0,0.3,0,0.4-0.1c0.2-0.4,0.2-0.8,0.1-1.2c-0.1-0.1-0.3-0.2-0.4-0.2c-1.5,0-3.1-0.1-4.6-0.4L2.5,89.5z M8.1,92.2
	c-0.8,0.1-5.3,0.2-6.1,0.1c-0.6,0-1.2-0.1-1.8-0.2L0,92.5c0,0.1,0,0.2,0,0.2c0.4,0.5,1,0.9,1.5,1.2c0.5-0.2,1-0.2,1.5-0.3
	c0.7-0.1,4.8-0.1,5.5-0.1c0.4,0,1.4,0,1.7,0c0.3-0.2,0.4-0.6,0.4-1c0-0.1-0.1-0.3-0.2-0.3C9.8,92.1,9.3,92,8.7,92L8.1,92.2z
	 M9.4,97.7c0-2-1.8-3.2-3.9-3.2s-3.9,1.2-3.9,3.2s1.8,3.2,3.9,3.2S9.4,99.7,9.4,97.7L9.4,97.7z M7.4,97.7c0,1-0.8,1.9-1.9,1.9
	c-1,0-1.9-0.8-1.9-1.9c0-1,0.8-1.9,1.9-1.9l0,0c1-0.1,1.8,0.7,1.9,1.6C7.4,97.6,7.4,97.6,7.4,97.7L7.4,97.7z M31.2,100.8
	c-0.5,0-2.1,0.1-3.9,0.1V98l4.4-0.1c0.1,0,0.2,0,0.3-0.1c0.2-0.3,0.3-0.6,0.3-0.9c0-0.2-0.1-0.3-0.3-0.4c-0.6-0.1-1.2-0.2-1.9-0.1
	l-0.5,0.3c-1.2,0.1-4.4,0.1-5.8,0.1c-0.2,0-0.4-0.1-0.4-0.3v-0.1v-2l7.7-0.1c0.2-0.2,0.3-0.5,0.3-0.8c0-0.1,0-0.2-0.1-0.2l-0.4-0.2
	c0.2-0.7,0.4-1.5,0.5-2.3l0.3-0.7c0.1-0.1,0.1-0.2,0-0.3l0,0c-0.2-0.1-0.8-0.4-1.1-0.5c-0.1-0.1-0.3-0.1-0.4,0l-0.8,0.3
	c-1,0.1-5.9,0.1-6.8,0.1c-0.6,0-1.3-0.1-1.9-0.2l-0.1,0.3c-0.1,0.1,0,0.2,0,0.2l0,0c0.5,0.5,1.1,0.9,1.7,1.2
	c0.5-0.1,1.1-0.2,1.7-0.3c0.7-0.1,4-0.1,5.3-0.1c0,0.7,0,1.4,0,2.1L28.9,93c-0.8,0.1-3.9,0.1-5.2,0.1C23.1,93,21.5,93,20.8,93
	c-0.1,0-0.2,0-0.2,0.1l-0.1,0.5c0.4,0.1,0.7,0.3,1,0.6v2.2c-0.1,0.7,0.4,1.4,1.1,1.5c0.1,0,0.3,0,0.4,0h2.4v2.9c-2.2,0-4.3,0-4.9,0
	c-0.8,0-1.5-0.1-2.3-0.2l-0.2,0.3c0,0.1,0,0.2,0.1,0.3c0.6,0.5,1.3,1,2,1.3c0.7-0.2,1.4-0.3,2.1-0.4c1.1-0.1,8.5-0.1,9.8-0.1
	c0.6,0,1.8,0,2.3,0.1c0.3-0.2,0.5-0.6,0.5-1c0-0.2-0.1-0.4-0.3-0.4c-0.7-0.2-1.5-0.3-2.3-0.4L31.2,100.8z M48.6,96.7
	c0,1.2,0.1,2.5,0.2,3.7H50c0.5-1.4,0.7-2.9,0.7-4.3v-6.4l0.1-1.1c0-0.2-0.1-0.4-0.3-0.5c-0.9-0.3-1.9-0.5-2.8-0.6
	c-0.1,0-0.2,0-0.3,0.1l-0.2,0.6c0.6,0.2,1,0.6,1.4,1L48.6,96.7L48.6,96.7z M39.5,93.6c0.1-1.2,1.1-2.1,2.3-2s2.1,1.1,2,2.3
	c-0.1,1.1-1,2-2.1,2s-2.1-0.9-2.1-2C39.5,93.8,39.5,93.7,39.5,93.6L39.5,93.6z M45.8,93.6c0-2.2-1.7-3.8-4.2-3.8
	c-2.4,0-4.2,1.5-4.2,3.8s1.7,3.8,4.2,3.8c2.1,0.2,4-1.4,4.2-3.5C45.8,93.8,45.8,93.7,45.8,93.6L45.8,93.6z M48.9,103.1
	c-1.1,0.1-3.6,0.1-4.6,0.1c-0.2,0-0.4-0.1-0.5-0.3v-0.1v-1.9v-1c0-0.2-0.1-0.4-0.3-0.4c-0.9-0.1-1.8-0.2-2.7-0.2
	c-0.1,0-0.2,0-0.3,0.1l-0.1,0.5c0.5,0.1,0.9,0.4,1.3,0.7v2.2c0,1.1,0.5,1.6,1.9,1.6l7.7-0.1c0.1,0,0.2,0,0.3-0.1
	c0.2-0.3,0.3-0.6,0.3-1c0-0.2-0.1-0.3-0.3-0.4c-0.6-0.1-1.3-0.2-1.9-0.1L48.9,103.1z M67.8,96.5c-1.3,0.1-9.7,0.2-10.9,0.2
	c-0.8,0-1.5-0.1-2.3-0.2l-0.2,0.3c0,0.1,0,0.2,0.1,0.3c0.6,0.5,1.3,1,2,1.3c0.7-0.2,1.4-0.3,2.1-0.4c1.1-0.1,8.5-0.1,9.8-0.1
	c0.6,0,1.8,0,2.3,0.1c0.3-0.2,0.5-0.6,0.5-1c0-0.2-0.1-0.4-0.3-0.4c-0.7-0.2-1.5-0.3-2.3-0.4L67.8,96.5z M65.6,103.1
	c-1.1,0-3.6,0.1-4.7,0.1c-0.2,0-0.4-0.1-0.5-0.3v-0.1v-1.6v-1c0-0.2-0.1-0.4-0.3-0.5c-0.9-0.1-1.8-0.2-2.7-0.2c-0.1,0-0.2,0-0.3,0.2
	l-0.1,0.5c0.5,0.1,0.9,0.4,1.3,0.6v2c0,1.1,0.5,1.6,1.7,1.6l7.8-0.1c0.1,0,0.2,0,0.3-0.1c0.2-0.3,0.3-0.6,0.3-1
	c0-0.2-0.1-0.3-0.3-0.4c-0.6-0.1-1.3-0.1-1.9-0.1L65.6,103.1z M62.8,95.5c2.6,0,4.4-1.5,4.4-3.4c0-2-1.8-3.4-4.4-3.4
	s-4.4,1.5-4.4,3.4C58.4,94.1,60.2,95.6,62.8,95.5L62.8,95.5z M62.8,90c1.2,0.1,2,1.1,1.9,2.3c-0.1,1.2-1.1,2-2.3,1.9
	c-1.1-0.1-1.9-1-1.9-2.1c0-1.2,0.9-2.1,2.1-2.1C62.6,90,62.7,90,62.8,90L62.8,90z M81.4,93.6c0.1-1.2,1.1-2.1,2.3-2
	c1.2,0.1,2.1,1.1,2,2.3c-0.1,1.1-1,2-2.2,2s-2.1-0.9-2.2-2.1C81.4,93.7,81.4,93.6,81.4,93.6L81.4,93.6z M90.6,96.8
	c0,1.2,0.1,2.5,0.2,3.7H92c0.4-1.4,0.7-2.9,0.7-4.4v-6.4l0.1-1.1c0-0.2-0.1-0.4-0.3-0.5c-0.9-0.3-1.9-0.5-2.8-0.6
	c-0.1,0-0.2,0-0.3,0.1l-0.2,0.6c0.6,0.2,1.1,0.6,1.4,1V93c-0.7,0-1.6,0.1-2.1,0c-0.3,0-0.6,0-0.8,0c-0.4-2-2.2-3.4-4.2-3.2
	c-2.5,0-4.2,1.5-4.2,3.8s1.7,3.8,4.2,3.8c2.1,0.2,3.9-1.3,4.2-3.3c0.2,0.1,0.4,0.2,0.6,0.3c0.4-0.1,0.7-0.2,1.1-0.3
	c0.4,0,0.8-0.1,1.3-0.1L90.6,96.8L90.6,96.8z M90.9,103.1c-1.1,0.1-3.5,0.1-4.6,0.1c-0.2,0-0.4-0.1-0.5-0.3v-0.1v-1.9v-1
	c0-0.2-0.1-0.4-0.3-0.4c-0.9-0.1-1.8-0.2-2.7-0.2c-0.1,0-0.2,0-0.3,0.1l-0.1,0.5c0.5,0.1,0.9,0.4,1.2,0.7v2.3c0,1.1,0.5,1.6,1.9,1.6
	l7.6-0.1c0.1,0,0.2,0,0.3-0.1c0.2-0.3,0.3-0.6,0.3-1c0-0.2-0.2-0.4-0.3-0.4c-0.6-0.1-1.3-0.2-1.9-0.1L90.9,103.1z M108.3,88.3
	c0.5,0.2,1,0.5,1.3,1v11.8c0,1.3,0.1,2.6,0.2,3.9h1.1c0.4-1.5,0.6-3,0.7-4.5V89.6l0.1-1c0-0.2-0.1-0.4-0.3-0.5
	c-0.8-0.3-1.7-0.5-2.6-0.6c-0.1,0-0.2,0-0.3,0.1L108.3,88.3z M105.2,89.5c0.5,0.2,0.9,0.5,1.2,0.9v4.4c-0.5,0-1,0-1.4,0
	c-0.5,0-0.9,0-1.4-0.1l-0.2,0.2c0,0.1,0,0.2,0,0.2c0.4,0.4,0.8,0.7,1.2,1c0.3-0.1,0.7-0.2,1-0.2c0.1,0,0.3,0,0.6-0.1v4.3
	c0,1.2,0.1,2.4,0.2,3.6h1c0.4-1.3,0.6-2.7,0.6-4.1v-9l0.1-0.9c0-0.2-0.1-0.4-0.2-0.5c-0.8-0.3-1.6-0.5-2.5-0.6c-0.1,0-0.2,0-0.3,0.1
	L105.2,89.5z M103.9,97.2l-1.4-1.6c0.7-1,1.4-2.2,1.8-3.4l0.4-0.6c0.1-0.1,0.1-0.2,0-0.2l0,0c-0.3-0.2-0.7-0.4-1-0.5
	c-0.1-0.1-0.3-0.1-0.4,0l-0.8,0.3c-0.8,0-2.9,0.1-3.5,0.1s-1.1,0-1.7-0.1l-0.1,0.2c0,0.1,0,0.2,0.1,0.2c0.4,0.4,0.9,0.8,1.5,1
	c0.4-0.1,0.9-0.2,1.3-0.3c0.3,0,1.2,0,1.9,0c-1,2.9-2.8,5.6-5,7.7c-0.1,0.1-0.1,0.2,0,0.2l0,0l0.3,0.3c0.1,0,0.2,0,0.3-0.1
	c1.6-1.1,3-2.4,4.2-3.9l2.1,2.9c0.1,0.2,0.3,0.3,0.5,0.4c0.3,0.1,0.7,0,0.9-0.2c0.1-0.2,0.1-0.4,0-0.6c-0.2-0.5-0.4-1-0.6-1.5
	L103.9,97.2z M129.1,94.8l-1,0.1v-5.2l0.1-1.1c0-0.2-0.1-0.4-0.3-0.5c-0.9-0.3-1.9-0.5-2.9-0.6c-0.1,0-0.2,0-0.3,0.1l-0.2,0.6
	c0.6,0.2,1.1,0.6,1.5,1.1v7.9c-2.3,0.5-4.7,0.9-7.1,0.9c-0.2,0-0.3-0.1-0.4-0.2v-0.1v-5.3v-1c0-0.2-0.1-0.4-0.3-0.4l0,0
	c-0.9-0.1-1.8-0.2-2.7-0.2c-0.1,0-0.2,0.1-0.3,0.2l-0.1,0.6c0.5,0.2,0.9,0.4,1.3,0.7v5.5c0,0.3,0,0.7,0.1,1c0.2,0.8,0.9,1.3,1.7,1.2
	c0.2,0,0.5,0,0.7,0c2.4-0.3,4.7-0.8,7-1.5v2.5c0,1.3,0.1,2.7,0.2,4h1.2c0.4-1.5,0.7-3.1,0.7-4.6v-4.2l2.8-0.1c0.2,0,0.4-0.1,0.5-0.2
	c0.2-0.3,0.3-0.6,0.2-1c0-0.2-0.2-0.4-0.4-0.4c-0.5-0.1-1.1-0.1-1.6-0.1L129.1,94.8z M152.8,94.2l-1,0.1v-4.6l0.1-1.1
	c0-0.2-0.1-0.4-0.3-0.5c-0.9-0.3-1.9-0.5-2.8-0.6c-0.1,0-0.2,0-0.3,0.1l-0.2,0.6c0.6,0.2,1,0.6,1.4,1v7.3c-1.6,0.3-3.1,0.5-4.7,0.6
	v-1.5c1.6-0.1,2.9-1.5,3-3.1c0-2-1.8-3.2-4-3.2c-2.1,0-4,1.2-4,3.2c0.1,1.7,1.4,3,3.1,3.2v1.7c-0.9,0.1-1.7,0.1-2.4,0.1
	s-1.4,0-2.1-0.1l-0.1,0.3c-0.1,0.1,0,0.2,0.1,0.2l0,0c0.6,0.5,1.2,1,1.9,1.4c0.5-0.2,1.1-0.3,1.6-0.3c2.6-0.2,5.2-0.6,7.8-1.2
	c0,1,0.1,1.9,0.2,2.9h1.2c0.5-1.4,0.7-2.9,0.7-4.4v-0.8l2.8-0.1c0.2,0,0.4-0.1,0.5-0.2c0.2-0.3,0.3-0.6,0.2-0.9
	c0-0.2-0.2-0.4-0.4-0.4c-0.5-0.1-1.1-0.1-1.6-0.1L152.8,94.2z M142.1,92.6c-0.1-1.1,0.7-2.1,1.8-2.2s2.1,0.7,2.2,1.8
	s-0.7,2.1-1.8,2.2c-0.1,0-0.1,0-0.2,0c-1,0.1-1.9-0.6-2-1.6C142.1,92.7,142.1,92.6,142.1,92.6z M150.3,103.3c-1.1,0-3.7,0.1-4.8,0.1
	c-0.2,0-0.4-0.1-0.4-0.3V103v-1.3v-0.9c0-0.2-0.1-0.4-0.3-0.5c-0.9-0.1-1.8-0.2-2.7-0.2c-0.1,0-0.2,0-0.3,0.2l-0.1,0.5
	c0.5,0.1,0.9,0.4,1.3,0.7v1.6c0,1.1,0.5,1.6,1.9,1.6l7.8-0.1c0.1,0,0.3,0,0.3-0.1c0.2-0.3,0.3-0.6,0.3-1c0-0.2-0.1-0.3-0.3-0.4
	c-0.6-0.1-1.3-0.2-1.9-0.2L150.3,103.3z M169.3,98.9c-1.2,0.1-5.8,0.2-6.7,0.2c-0.7,0-1.4-0.1-2.1-0.2l-0.2,0.3c0,0.1,0,0.2,0.1,0.3
	c0.5,0.5,1.2,0.8,1.8,1.1c0.6-0.2,1.2-0.3,1.7-0.3c0.7-0.1,3.6-0.1,5-0.1v2.7c0,0.8,0.1,1.6,0.2,2.3h1.2c0.4-0.9,0.6-1.8,0.6-2.8
	v-2.2l0.2-0.7c0-0.1,0-0.2,0-0.3c-0.3-0.2-0.7-0.4-1-0.6c-0.1-0.1-0.2-0.1-0.4,0L169.3,98.9z M166,95.9c0.1-0.2,0.1-0.4,0.1-0.6
	c0.2,0.2,0.4,0.3,0.7,0.4c0.3-0.1,0.7-0.2,1.1-0.2c0.3,0,0.8-0.1,1.4-0.1c0,0.9,0.1,1.8,0.2,2.7h1.2c0.4-1.1,0.6-2.3,0.7-3.6v-4.9
	l0.1-1.1c0-0.2-0.1-0.4-0.3-0.5c-0.9-0.3-1.9-0.5-2.8-0.6c-0.1,0-0.2,0-0.3,0.1l-0.2,0.6c0.6,0.2,1.1,0.5,1.4,1v1.7
	c-0.7,0-1.7,0.1-2.2,0.1c-0.2,0-0.5,0-0.8,0v-0.4l0.1-1c0-0.2-0.1-0.3-0.2-0.4c-0.8-0.2-1.6-0.4-2.4-0.4c-0.2,0-0.3,0-0.3,0.1
	l-0.2,0.5c0.4,0.1,0.8,0.4,1,0.7v1.9h-3.7V91v-0.8c0-0.2-0.1-0.3-0.2-0.4l0,0c-0.8-0.2-1.6-0.3-2.5-0.3c-0.2,0-0.3,0-0.3,0.1
	l-0.1,0.5c0.4,0.1,0.7,0.3,1,0.6l0.1,5.4c0,0.4,0.1,0.9,0.3,1.3h1.1c0.2-0.2,0.4-0.5,0.5-0.7c1.4,0,4.6-0.1,5.9-0.1
	c0.2-0.2,0.3-0.5,0.2-0.8c0-0.1-0.1-0.2-0.2-0.2L166,95.9z M169.2,94.3c-0.8,0-1.7,0.1-2.2,0.1c-0.3,0-0.5,0-0.8,0v-0.2v-1.9
	c0.2,0.1,0.3,0.2,0.5,0.3c0.3-0.1,0.7-0.2,1.1-0.2c0.3,0,0.8-0.1,1.4-0.1V94.3L169.2,94.3z M164.2,93.4v2.4l-3.7,0.1v-2.4
	L164.2,93.4z M188.8,105c0.4-1.5,0.7-3.1,0.7-4.6V89.7l0.1-1.1c0-0.2-0.1-0.4-0.3-0.5c-0.9-0.3-1.9-0.5-2.9-0.6
	c-0.1,0-0.2,0-0.3,0.1l-0.2,0.6c0.6,0.2,1.1,0.6,1.5,1.1V101c0,1.3,0.1,2.7,0.2,4H188.8L188.8,105z M177.9,89.5c0,0.1,0,0.2,0,0.2
	c0.3,0.5,0.7,1,1.2,1.4c0.1,0.1,0.3,0.1,0.5,0.1c0.8-0.1,2.2-0.1,3-0.1c0.1,0,0.3,0,0.4-0.1c0.2-0.4,0.2-0.8,0.1-1.2
	c-0.1-0.1-0.2-0.2-0.4-0.2c-1.5,0-3.1-0.1-4.6-0.4L177.9,89.5z M183.5,92.2c-0.8,0.1-5.3,0.2-6.1,0.1c-0.6,0-1.2-0.1-1.8-0.2
	l-0.2,0.3c0,0.1,0,0.2,0,0.2c0.4,0.5,1,0.9,1.5,1.2c0.5-0.1,0.9-0.2,1.4-0.2c0.7-0.1,4.8-0.1,5.5-0.1c0.4,0,1.4,0,1.7,0
	c0.3-0.2,0.4-0.6,0.4-1c0-0.1-0.1-0.3-0.2-0.3c-0.6-0.1-1.1-0.2-1.7-0.3L183.5,92.2z M184.8,97.7c0-2-1.8-3.2-3.8-3.2
	s-3.8,1.2-3.8,3.2s1.8,3.2,3.8,3.2S184.8,99.7,184.8,97.7L184.8,97.7z M182.8,97.7c0,1-0.8,1.9-1.9,1.9c-1,0-1.9-0.8-1.9-1.9
	c0-1,0.8-1.9,1.8-1.9c1-0.1,1.8,0.7,1.9,1.6C182.8,97.6,182.8,97.6,182.8,97.7L182.8,97.7z M203.6,97.4c-1.3,0.1-2.5-0.9-2.6-2.2
	s0.9-2.5,2.2-2.6s2.5,0.9,2.6,2.2c0,0.1,0,0.1,0,0.2c0.1,1.2-0.8,2.2-1.9,2.4C203.8,97.4,203.7,97.4,203.6,97.4L203.6,97.4z
	 M203.6,91c-2.2,0.2-3.8,2.1-3.7,4.3c0.2,2.2,2.1,3.8,4.3,3.7c2.1-0.2,3.7-1.9,3.7-4c0-2.2-1.9-4-4.1-4C203.7,91,203.7,91,203.6,91
	L203.6,91z M213.1,94.8l-1,0.1v-5.1l0.1-1.1c0-0.2-0.1-0.4-0.3-0.5c-0.9-0.3-1.9-0.5-2.9-0.6c-0.1,0-0.2,0-0.3,0.1l-0.2,0.6
	c0.6,0.2,1.1,0.6,1.5,1.1V101c0,0.8,0.1,3.3,0.2,4h1.2c0.4-1.5,0.7-3.1,0.7-4.6v-4.3l2.8-0.1c0.2,0,0.4-0.1,0.5-0.2
	c0.2-0.3,0.3-0.6,0.2-0.9c0-0.2-0.2-0.4-0.4-0.4c-0.5-0.1-1.1-0.1-1.6-0.1L213.1,94.8z M230.3,96.7c-1.3,0.1-9.7,0.2-10.9,0.2
	c-0.8,0-1.5-0.1-2.3-0.2L217,97c0,0.1,0,0.2,0.1,0.3c0.6,0.5,1.3,1,2,1.3c0.7-0.2,1.4-0.3,2.1-0.4c1.1-0.1,8.5-0.2,9.8-0.1
	c0.6,0,1.8,0,2.3,0.1c0.3-0.2,0.5-0.6,0.5-1c0-0.2-0.1-0.4-0.3-0.4c-0.7-0.2-1.5-0.3-2.3-0.4L230.3,96.7z M228,99.4
	c-1.1,0.1-3.8,0.1-4.8,0.1c-0.7-0.1-2.1-0.2-2.8-0.2c-0.1,0-0.2,0-0.2,0.1L220,100c0.4,0.1,0.7,0.4,1,0.7l0.3,3.3
	c0,0.4,0.1,0.8,0.3,1.1h1.2c0.2-0.2,0.3-0.3,0.4-0.6l6.6-0.1c0.2-0.3,0.3-0.6,0.3-0.9c0-0.1-0.1-0.2-0.2-0.3l-0.3-0.2
	c0.2-0.8,0.3-1.6,0.4-2.3l0.3-0.8c0.1-0.1,0-0.2,0-0.3l0,0c-0.3-0.2-0.7-0.4-1-0.5c-0.1,0-0.3,0-0.4,0L228,99.4z M223.2,100.8
	c1.4,0,3.2-0.1,4.7-0.1v2.2l-0.4,0.1c-1.1,0.1-3,0.1-4.2,0.1L223.2,100.8z M227.4,91.6c-0.7,0.1-3.4,0.1-4.7,0.1
	c-0.6-0.1-2.2-0.1-2.9-0.1c-0.1,0-0.2,0-0.2,0.1l-0.1,0.5c0.4,0.1,0.8,0.3,1.1,0.6v1.4c-0.1,0.7,0.4,1.3,1.1,1.4c0.1,0,0.3,0,0.4,0
	l8.3-0.1c0.1,0,0.2,0,0.3-0.1c0.2-0.3,0.3-0.6,0.2-0.9c0-0.2-0.1-0.3-0.3-0.3c-0.6-0.1-1.1-0.1-1.7-0.1l-0.5,0.3
	c-1.1,0.1-3.9,0.1-5.3,0.1c-0.2,0-0.3-0.1-0.3-0.2v-0.1V93l7.2-0.1c0.2-0.2,0.2-0.5,0.2-0.7c0-0.1-0.1-0.2-0.2-0.2l-0.4-0.2
	c0.2-0.5,0.3-1,0.4-1.6l0.3-0.6c0.1-0.1,0.1-0.2,0-0.3l0,0c-0.3-0.2-0.7-0.3-1-0.5c-0.1-0.1-0.2-0.1-0.4,0l-0.7,0.3
	c-1.1,0.1-5.6,0.1-6.5,0.1c-0.6,0-1.3-0.1-1.9-0.2l-0.1,0.3c-0.1,0.1,0,0.2,0,0.2l0,0c0.5,0.4,1,0.8,1.6,1.1
	c0.5-0.1,1.1-0.2,1.6-0.3c0.7,0,3.5-0.1,4.8-0.1c0,0.5,0,1-0.1,1.5L227.4,91.6z M249.7,95.1l-1,0.1v-5.4l0.1-1.1
	c0-0.2-0.1-0.4-0.3-0.5c-0.9-0.3-1.9-0.5-2.9-0.6c-0.1,0-0.2,0-0.3,0.1l-0.2,0.6c0.6,0.2,1.1,0.6,1.5,1.1v8.1
	c-2.4,0.6-4.8,0.9-7.3,1c-0.2,0-0.3-0.1-0.3-0.2v-0.1v-5.8l5-0.2c0.1,0,0.2,0,0.3-0.1c0.2-0.3,0.3-0.6,0.3-0.9
	c0-0.2-0.1-0.3-0.3-0.4c-0.6-0.1-1.1-0.1-1.7-0.1l-0.5,0.4c-0.6,0.1-2.4,0.1-3.1,0.2c-0.9-0.1-1.9-0.2-2.9-0.2c-0.1,0-0.2,0-0.2,0.1
	l-0.1,0.6c0.4,0.1,0.8,0.4,1.2,0.7V98c0,0.3,0,0.7,0.1,1c0.2,0.8,0.9,1.3,1.7,1.2c0.2,0,0.5,0,0.7,0c2.4-0.3,4.8-0.8,7.1-1.5v2.4
	c0,1.3,0.1,2.7,0.2,4h1.2c0.4-1.5,0.7-3.1,0.7-4.6v-4l2.8-0.1c0.2,0,0.4-0.1,0.5-0.2c0.2-0.3,0.3-0.6,0.2-1c0-0.2-0.2-0.4-0.4-0.4
	c-0.5-0.1-1.1-0.1-1.6-0.1L249.7,95.1z M259.4,90.7c1.1,0,1.9,0.9,1.9,2s-0.9,1.9-2,1.9c-1,0-1.9-0.9-1.9-1.9s0.8-1.9,1.8-1.9
	C259.3,90.7,259.3,90.7,259.4,90.7L259.4,90.7z M259.4,96c2.4,0,4.1-1.4,4.1-3.4c0-1.9-1.7-3.3-4.1-3.3c-2.3,0-4.1,1.4-4.1,3.3
	C255.3,94.6,257,96,259.4,96L259.4,96z M265,96.6c0-0.1-0.1-0.2-0.2-0.1c-3,0.5-6,0.7-9.1,0.8c-0.7,0-1.4,0-2.1-0.1l-0.1,0.3
	c0,0.1,0,0.2,0.1,0.2c0.6,0.5,1.2,1,1.9,1.4c0.5-0.2,1.1-0.3,1.6-0.4c0.4,0,1-0.1,1.5-0.1v2.4c0,0.8,0.1,2.8,0.2,3.5h1.2
	c0.4-1.4,0.6-2.7,0.7-4.2v-2c1.5-0.2,2.9-0.5,4.3-0.9c0.1,0,0.2-0.1,0.2-0.2l0,0L265,96.6z M264.6,88.3c0.6,0.2,1.1,0.6,1.5,1.1v9.8
	c-0.8,0.1-1.9,0.1-2.4,0.2c-0.5,0-1.1,0-1.6-0.1l-0.2,0.3c0,0.1,0,0.2,0.1,0.2c0.4,0.4,0.9,0.7,1.4,1c0.4-0.1,0.8-0.2,1.2-0.3
	c0.5-0.1,1-0.1,1.5-0.1v0.7c0,1.3,0.1,2.7,0.2,4h1.2c0.4-1.5,0.7-3.1,0.7-4.6V89.7l0.1-1.1c0-0.2-0.1-0.4-0.3-0.5
	c-0.9-0.3-1.9-0.5-2.9-0.6c-0.1,0-0.2,0-0.3,0.1L264.6,88.3z M276.7,97.4c-1.3,0.1-2.4-0.9-2.5-2.2c-0.1-1.3,0.9-2.4,2.2-2.5
	c1.3-0.1,2.4,0.9,2.5,2.2c0,0.1,0,0.1,0,0.2c0.1,1.2-0.8,2.2-1.9,2.3C276.9,97.4,276.8,97.4,276.7,97.4L276.7,97.4z M276.7,91
	c-2.2,0.2-3.8,2.1-3.6,4.3c0.2,2.2,2.1,3.8,4.3,3.6c2.1-0.2,3.6-1.9,3.6-4c0-2.2-1.9-4-4.1-4C276.9,91,276.8,91,276.7,91L276.7,91z
	 M286.3,97.1l-1,0.1V94l2.8-0.1c0.2,0,0.4-0.1,0.5-0.2c0.2-0.3,0.3-0.6,0.2-0.9c0-0.2-0.2-0.4-0.4-0.4c-0.5-0.1-1.1-0.1-1.6-0.1
	l-0.6,0.4l-1,0.1v-2.9l0.1-1.1c0-0.2-0.1-0.4-0.3-0.5c-0.9-0.3-1.9-0.5-2.9-0.6c-0.1,0-0.2,0-0.3,0.1l-0.2,0.6
	c0.6,0.2,1.1,0.6,1.5,1.1V101c0,1.3,0.1,2.7,0.2,4h1.2c0.4-1.5,0.7-3.1,0.7-4.6v-2l2.8-0.1c0.2,0,0.4-0.1,0.5-0.2
	c0.2-0.3,0.3-0.6,0.2-1c0-0.2-0.2-0.4-0.4-0.4c-0.5-0.1-1.1-0.1-1.6-0.1L286.3,97.1z M298.1,88.9c-0.1,0.1-0.1,0.2,0,0.3
	c0.3,0.5,0.7,0.9,1.2,1.3c0.1,0.1,0.3,0.1,0.5,0.1c0.8-0.1,2.1-0.1,2.9-0.1c0.1,0,0.3,0,0.4-0.1c0.2-0.3,0.2-0.8,0.1-1.1
	c-0.1-0.1-0.2-0.2-0.4-0.2c-1.5,0-3-0.1-4.4-0.3L298.1,88.9z M303.6,91.4c-0.8,0.1-5.4,0.1-6.1,0.1c-0.6,0-1.2-0.1-1.8-0.1l-0.2,0.3
	c0,0.1,0,0.2,0,0.2c0.5,0.5,1,0.8,1.6,1.1c0.5-0.1,0.9-0.2,1.4-0.2c0.7-0.1,4.8-0.1,5.6-0.1c0.4,0,1.3,0,1.7,0.1
	c0.3-0.2,0.4-0.6,0.4-1c0-0.1-0.1-0.3-0.2-0.3c-0.6-0.2-1.1-0.2-1.7-0.3L303.6,91.4z M299.3,96.1c-0.1-1,0.6-1.9,1.6-2
	s1.9,0.6,2,1.6s-0.6,1.9-1.6,2c-0.1,0-0.1,0-0.2,0C300.2,97.8,299.4,97.1,299.3,96.1C299.3,96.3,299.3,96.2,299.3,96.1L299.3,96.1z
	 M304.9,96.1c0-1.8-1.7-2.9-3.8-2.9c-2.1,0-3.8,1.1-3.8,2.9s1.7,3,3.8,3C303.2,99.1,304.9,98,304.9,96.1L304.9,96.1z M307.4,103.2
	c-1,0-3.4,0.1-4.5,0.1c-0.2,0-0.4-0.1-0.4-0.3v-0.1v-1.2v-0.9c0-0.2-0.1-0.4-0.3-0.5c-0.9-0.1-1.8-0.2-2.7-0.2c-0.1,0-0.2,0-0.3,0.2
	l-0.1,0.5c0.4,0.1,0.9,0.4,1.2,0.7v1.5c0,1.1,0.5,1.6,1.9,1.6l7.5-0.1c0.1,0,0.2,0,0.3-0.1c0.2-0.3,0.3-0.6,0.3-1
	c0-0.2-0.1-0.3-0.3-0.4c-0.6-0.1-1.3-0.2-1.9-0.2L307.4,103.2z M310,94.4l-1,0.1v-4.7l0.1-1.1c0-0.2-0.1-0.4-0.3-0.5
	c-0.9-0.3-1.9-0.5-2.8-0.6c-0.1,0-0.2,0-0.3,0.1l-0.2,0.6c0.6,0.2,1.1,0.6,1.4,1V97c0,1.3,0.1,2.5,0.2,3.7h1.2
	c0.5-1.4,0.7-2.9,0.7-4.4v-0.7l2.8-0.1c0.2,0,0.4-0.1,0.5-0.2c0.2-0.3,0.3-0.6,0.2-1c0-0.2-0.2-0.4-0.4-0.4
	c-0.5-0.1-1.1-0.1-1.6-0.1L310,94.4z M328.2,95.1l-1,0.1v-5.4l0.1-1.1c0-0.2-0.1-0.4-0.3-0.5c-0.9-0.3-1.9-0.5-2.9-0.6
	c-0.1,0-0.2,0-0.3,0.1l-0.2,0.6c0.6,0.2,1.1,0.6,1.5,1.1v8.1c-2.4,0.6-4.8,0.9-7.3,1c-0.2,0-0.3-0.1-0.3-0.2v-0.1v-5.8l5.1-0.2
	c0.1,0,0.2,0,0.3-0.1c0.2-0.3,0.3-0.6,0.3-0.9c0-0.2-0.1-0.3-0.3-0.4c-0.6-0.1-1.1-0.1-1.7-0.1l-0.5,0.4c-0.6,0.1-2.4,0.1-3.1,0.2
	c-0.9-0.1-1.9-0.2-2.9-0.2c-0.1,0-0.2,0-0.2,0.1l-0.1,0.6c0.4,0.1,0.8,0.4,1.2,0.7V98c0,0.3,0,0.7,0.1,1c0.2,0.8,0.9,1.3,1.7,1.2
	c0.2,0,0.5,0,0.7,0c2.4-0.3,4.8-0.8,7.2-1.5v2.4c0,1.3,0.1,2.7,0.2,4h1.2c0.4-1.5,0.7-3.1,0.7-4.6v-4l2.8-0.1c0.2,0,0.4-0.1,0.5-0.2
	c0.2-0.3,0.3-0.6,0.2-1c0-0.2-0.2-0.4-0.4-0.4c-0.5-0.1-1.1-0.1-1.6-0.1L328.2,95.1z"/>
<path id="ヒロインロゴ" class="st2" d="M276.9,58.4c5.7,0,10.9-6.2,13.4-9.9l0.9,0.4c0,0-0.7,2-0.7,2.1
	c-1.9,2.6-7.5,10.6-17.4,10.6c-2,0-4.6-0.4-5.1-3.4c-2.1,1.9-4.4,3.4-6.4,3.4c-3.9,0-5.1-6-5.5-9c-1.3,2.6-2.4,5.2-3.3,8l-0.1,0.3
	l-6.4,0.7l-0.8,0.1l2.2-6.6c-2.7,3.1-6.4,6.5-10.1,6.5c-1.5,0.1-2.9-1-3-2.5V59l0.4-2.1c0,0,0.6-1.9,1.1-3.6c-2,3.8-5.3,8.3-10,8.3
	c-2.2,0-3.3-1.3-3.4-3.9c-2.3,2.1-5,3.9-7.6,3.9c-1.4,0.1-2.6-1-2.7-2.4c0,0,0,0,0-0.1c0,0,0.4-2.5,0.5-2.5l2.9-9.4l0.6-2.3
	c0-0.3-0.2-0.6-0.6-0.6c-3.3,0-8.6,12.7-9.9,16.3l-0.1,0.3l-6.3,0.7h-0.8l2-5.6l0.6-1.8c0,0,2.3-7,2.3-7.3l0.5-2.2
	c0-0.2-0.2-0.4-0.5-0.4c-3.3,0-8.1,11-9.9,16.3l-0.1,0.3l-6.3,0.7h-0.8l2.6-7.4l1.4-4.4c0.7-1.8,1.1-3.8,1.2-5.7
	c0-0.4-0.1-0.9-1.8-0.9h-0.7l0.5-1.9l8.4-0.4h0.7l-2.5,6.6c0,0-0.8,2.5-1.5,4.6c3.5-7.3,7.5-11.3,11.7-11.3c1.5-0.1,2.7,1,2.8,2.4
	l0,0l-0.4,2.5c0,0-1.1,3.3-2.2,6.6c2.6-5.5,6.7-11.6,11.9-11.6c1.4-0.2,2.6,0.8,2.8,2.2c0,0.1,0,0.3,0,0.4l-0.5,2.5l-3.2,9.7
	l-0.3,1.9c0,0.3,0.1,0.5,0.3,0.6c1.1,0,2.8-1.5,4.6-3.4c1.5-6.5,8.2-13.9,13.3-13.9c1.5-0.1,2.8,1,3,2.5c0.3-0.9,0.7-2.1,0.7-2.1
	l5.7-0.4l-0.2,0.7c0,0-4.6,14.3-4.7,14.5l-0.3,1.3c-0.1,0.4,0.2,0.7,0.6,0.8c1.8,0,5.6-4.3,8.3-7.7l3.8-11.6
	c0.5-1.6,1.8-5.9,1.8-7.3c0-0.9-0.7-1.1-2-1.2h-0.8l0.7-1.8l9.1-0.5c0,0-6,18.4-8.5,26.2c2.4-5.6,6.5-13.3,11-13.3
	c1.9,0,3.4,1.6,3.4,3.5c0,3.9-3.6,5.7-6.7,6.7c0,0-0.1,0-0.2,0.1c0,0.1,0,0.2,0,0.2c0.3,1.8,1.2,6.6,3.2,6.6c1.1,0,2.6-1,4.1-2.4
	c1-6,7.7-14.7,14.4-14.7c2.7,0,3,1.8,3,2.6c0,3.5-5.5,10.5-11.9,10.6l-0.1,1.2C273.4,57.4,274.6,58.4,276.9,58.4z M234.4,43.7
	c-3.9,0-6.4,9.9-6.4,12.3c0,0.9,0.2,2,1.2,2c1.9,0,7.4-7.5,7.4-11C236.6,44.8,235.8,43.7,234.4,43.7z M263.1,45.5
	c0-0.5-0.3-0.9-0.8-1c-1.5,0-3.6,3.1-4.7,5.2c0.1,0,0.1,0,0.2,0C260.8,49.7,263.1,47.5,263.1,45.5z M275.7,51.4
	c2.6,0,4.6-2.9,4.6-6.7c0-1-0.2-1.5-0.7-1.5c-1.9,0-4.4,5.5-5.3,7.9C274.8,51.3,275.7,51.4,275.7,51.4L275.7,51.4z M155,61.1
	c-2.1,0-4.8-0.4-5.1-3.7c-2.2,2.1-4.8,3.7-7.3,3.7c-1.4,0.1-2.5-0.9-2.6-2.3c0,0,0,0,0-0.1l0.5-2.5l2.9-9.1l0.6-2.3
	c0-0.3-0.2-0.5-0.5-0.5c-3.1,0-8.4,12.3-9.6,15.8l-0.1,0.3l-6.1,0.7h-0.8l2.5-7.2v-0.1c-2.6,3.2-6.5,7.3-10.4,7.3c-1.9,0-3-1-3-2.6
	c0.2-1.2,0.5-2.5,0.9-3.6c-2.7,2.8-6.2,5.6-10.1,5.6c-0.8-0.2-1.6-0.4-2.5-0.5c-1.4,0.7-2.9,1.1-4.5,1.2c-2.4,0.2-4.5-1.6-4.7-4
	c0-0.2,0-0.5,0-0.7c0-5.7,7.3-15.4,14.9-15.4c3.1,0,4.7,1.6,4.7,4.5c0,5-4.9,10.3-7.5,12.4c0.2,0,0.5,0.1,0.5,0.1
	c3,0,6.5-2.4,10.5-7.1c0.2-0.7,0.4-1.2,0.4-1.2c0.7-1.8,1.1-3.6,1.2-5.5c0-0.4-0.1-0.9-1.7-0.9h-0.7l0.5-1.8l8.2-0.4h0.7l-2.4,6.5
	l-2.6,7.9l-0.4,2c0.1,0.2,0.3,0.4,0.6,0.3c2,0,5.7-4.1,8.8-8.5c0.6-1.7,1-3.4,1.1-5.2c0-0.4-0.2-0.9-1.7-0.9h-0.7l0.5-1.8l8.2-0.4
	h0.7l-2.4,6.5c0,0-0.9,2.6-1.7,5.1c2.5-5.2,6.5-11.5,11.2-11.5c2.3,0,3.1,1.3,3.1,2.5l-0.5,2.5l-3.1,9.4l-0.3,1.9
	c0,0.2,0.1,0.5,0.3,0.5c1,0,2.7-1.4,4.4-3.2c1.4-5.8,7.6-13.6,13.9-13.6c1.8,0,2.9,1,2.9,2.6c0,3.4-5.4,10.2-11.6,10.3l-0.1,1.2
	c0,2,1.1,3,3.4,3c5.6,0,10.5-6.1,13-9.6l0.9,0.4c0,0-0.6,1.9-0.7,2C170.1,53.4,164.6,61.1,155,61.1L155,61.1z M100.4,54.6
	c0,2.4,0.9,3.9,2.2,3.9h0.1c-1.1-1.3-1.6-3-1.5-4.7c0-2.4,0.6-4.8,1.7-6.9C101.3,49.1,100.4,51.8,100.4,54.6z M109.3,46.2
	c0-2.5-0.9-2.5-1.2-2.5c-2.2,0-4.8,5.1-4.8,9.3c0,2.9,1.2,3.8,2,4.3C107.8,54.1,109.2,50.2,109.3,46.2L109.3,46.2z M157.6,51.2
	c2.5,0,4.4-2.9,4.4-6.5c0-0.6-0.1-1.4-0.6-1.4c-1.9,0-4.3,5.3-5.2,7.7C156.8,51.1,157.6,51.2,157.6,51.2L157.6,51.2z M126.6,35.7
	c-1.5,0.1-2.8-1.1-2.9-2.6c0-0.1,0-0.2,0-0.3c0-1.6,1.2-2.9,2.8-3h0.1c1.6,0,2.9,1.3,2.9,3C129.5,34.4,128.3,35.7,126.6,35.7
	C126.7,35.7,126.7,35.7,126.6,35.7z M96.5,47.5L96,47c-0.6-0.8-1.5-1.2-2.4-1.3c-3.1,0-7,9.5-8.7,14.5l-0.1,0.3l-6.2,0.7h-0.8
	l1.9-5.5c-3.4,3.4-8,5.4-12.8,5.4c-2,0-4.7-0.4-5-3.6c-2.2,2-4.8,3.6-7.2,3.6c-1.4,0.1-2.6-1-2.6-2.4c0,0,0.4-2.3,0.5-2.6l3-9.3
	l0.3-1.7c0.1-0.3-0.1-0.5-0.4-0.6h-0.1c-3.5,0-8.8,13.4-9.4,15.6l-0.1,0.3l-6.1,0.7L39,61.2c0,0,5.9-18.5,6.2-19.2
	c-1.5-0.5-2.7-1.5-3.5-2.9l-0.2-0.4l4.1-2.8v1c0,0.7,0.3,1.5,0.7,2c2.3-6.7,6.3-10.4,11.3-10.4c2.9,0,4.6,1.5,4.6,3.9
	c0,5.4-7.5,9.3-11.8,9.8c-0.1,0.3-1.8,5.4-3.4,10.5C49.5,46.9,53.4,41,58.2,41c1.6,0,2.9,1.2,3,2.8c0,0-0.7,3.2-0.8,3.4
	c0,0-2.7,8.5-2.7,8.6l-0.3,1.6c0,0.3,0.2,0.4,0.5,0.4l0,0c0.5,0,1.7-0.4,4.1-2.8c1.2-5.9,7.5-14,14-14c1.8,0,2.9,1,2.9,2.6
	c0,3.4-5.3,10.2-11.6,10.3c0,0.1-0.1,1.2-0.1,1.2c0,2,1.1,3,3.3,3c4,0,7.7-3.1,10.4-6.3l0.7-2.1c0.7-1.8,1.1-3.6,1.2-5.5
	c0-0.4-0.1-0.9-1.7-0.9h-0.7l0.5-1.8l8.2-0.4h0.8l-2.4,6.5c0,0-0.8,2.4-1.5,4.6c2.5-5.2,6.3-11,10.7-11l1.8,0.2L96.7,47L96.5,47.5z
	 M57.2,32.8c0-1.3-0.6-2.2-1.5-2.2c-0.7,0-2.2,0.9-4,6.8c0,0-0.6,1.9-0.9,2.9C54.6,39.9,57.2,35.7,57.2,32.8L57.2,32.8z M69.4,51.2
	c2.5,0,4.4-2.9,4.4-6.5c0-0.6-0.1-1.4-0.7-1.4c-1.8,0-4.2,5.1-5.1,7.7C68.6,51.1,69.4,51.2,69.4,51.2L69.4,51.2z"/>
<path id="히로인_메이크" class="st3" d="M138.4,11.6c0.3-1,0.4-2,0.5-3.1V1.4V0.7c0-0.1,0-0.3-0.2-0.3
	c-0.6-0.2-1.3-0.3-1.9-0.4c-0.1,0-0.1,0-0.2,0.1l-0.1,0.4c0.4,0.1,0.7,0.4,1,0.7V9c0,0.9,0.1,1.8,0.1,2.6H138.4L138.4,11.6z
	 M131.2,1.3c0,0.1,0,0.1,0,0.2c0.2,0.3,0.5,0.7,0.8,0.9c0.1,0.1,0.2,0.1,0.3,0c0.5,0,1.5-0.1,2-0.1c0.1,0,0.2,0,0.2-0.1
	c0.1-0.2,0.2-0.5,0.1-0.8c-0.1-0.1-0.2-0.1-0.3-0.1c-1,0-2-0.1-3.1-0.2V1.3z M134.9,3.1c-0.5,0-3.5,0.1-4.1,0.1
	c-0.4,0-0.8,0-1.2-0.1l-0.1,0.2v0.1c0.3,0.3,0.6,0.6,1,0.8c0.3-0.1,0.6-0.1,0.9-0.2c0.4,0,3.2-0.1,3.7-0.1c0.3,0,0.9,0,1.1,0
	c0.2-0.2,0.3-0.4,0.3-0.6c0-0.1-0.1-0.2-0.1-0.2c-0.4-0.1-0.8-0.2-1.1-0.2L134.9,3.1z M135.8,7.2c0.3-1.4-0.7-2.8-2.1-3.1
	c-1.4-0.3-2.8,0.7-3.1,2.1s0.7,2.8,2.1,3.1c0.2,0,0.3,0,0.5,0C134.6,9.5,135.7,8.6,135.8,7.2C135.8,7.3,135.8,7.3,135.8,7.2
	L135.8,7.2z M134.4,6.7c0,0.7-0.5,1.2-1.2,1.2S132,7.4,132,6.7s0.5-1.2,1.2-1.2l0,0C133.8,5.5,134.4,5.9,134.4,6.7L134.4,6.7
	L134.4,6.7z M149.7,8.8c-0.3,0-1.4,0.1-2.6,0.1V7h2.9c0.1,0,0.2,0,0.2-0.1c0.1-0.2,0.2-0.4,0.2-0.6c0-0.1-0.1-0.2-0.2-0.3
	c-0.4-0.1-0.8-0.1-1.2-0.1l-0.3,0.2c-0.8,0-2.9,0.1-3.9,0.1c-0.1,0-0.2-0.1-0.3-0.2V5.9V4.6l5.1-0.1c0.1-0.2,0.2-0.3,0.2-0.5
	c0-0.1,0-0.1-0.1-0.2l-0.3-0.1c0.1-0.5,0.3-1,0.3-1.5l0.2-0.5c0.1-0.1,0-0.2,0-0.2l0,0c-0.1-0.1-0.6-0.3-0.7-0.3c-0.1,0-0.2,0-0.3,0
	l-0.5,0.2c-0.7,0-3.9,0.1-4.5,0.1c-0.4,0-0.9,0-1.3-0.1l-0.1,0.2v0.1l0,0c0.3,0.3,0.7,0.6,1.1,0.8c0.4-0.1,0.7-0.1,1.1-0.2
	c0.5,0,2.7-0.1,3.5,0c0,0.5,0,1,0,1.4l-0.3,0.1c-0.6,0-2.6,0.1-3.4,0.1c-0.4,0-1.5-0.1-1.9-0.1c-0.1,0-0.1,0-0.1,0.1l-0.1,0.3
	c0.3,0.1,0.5,0.2,0.7,0.4V6c-0.1,0.5,0.3,0.9,0.8,1c0.1,0,0.2,0,0.3,0h1.6v1.9c-1.5,0-2.9,0-3.3,0c-0.5,0-1,0-1.5-0.1L140.8,9
	c0,0.1,0,0.1,0,0.2c0.4,0.4,0.8,0.7,1.3,0.9c0.4-0.1,0.9-0.2,1.4-0.2c0.7,0,5.7-0.1,6.5-0.1c0.4,0,1.2,0,1.5,0.1
	c0.2-0.1,0.4-0.4,0.4-0.6c0-0.1-0.1-0.2-0.2-0.3c-0.5-0.1-1-0.2-1.5-0.2L149.7,8.8z M160.7,6.1c0,0.8,0,1.7,0.1,2.5h0.8
	c0.3-0.9,0.5-1.9,0.5-2.9V1.4V0.7c0-0.1,0-0.3-0.2-0.3c-0.6-0.2-1.2-0.3-1.9-0.4c-0.1,0-0.1,0-0.2,0.1l-0.1,0.4
	c0.4,0.1,0.7,0.4,0.9,0.7L160.7,6.1L160.7,6.1z M154.6,4c0-0.8,0.7-1.4,1.5-1.3c0.8,0,1.4,0.7,1.3,1.5c0,0.8-0.7,1.3-1.4,1.3
	c-0.8,0-1.4-0.6-1.4-1.3C154.6,4.1,154.6,4.1,154.6,4L154.6,4z M158.8,4c0.1-1.5-1-2.9-2.5-3c-1.5-0.1-2.9,1-3,2.5s1,2.9,2.5,3
	c0.1,0,0.2,0,0.3,0c1.4,0.1,2.6-0.9,2.8-2.3C158.8,4.2,158.8,4.1,158.8,4L158.8,4z M160.9,10.4c-0.7,0-2.4,0-3.1,0
	c-0.1,0-0.3-0.1-0.3-0.2v-0.1V8.8V8.2c0-0.1-0.1-0.3-0.2-0.3c-0.6-0.1-1.2-0.1-1.8-0.1c-0.1,0-0.1,0-0.2,0.1l-0.1,0.4
	c0.3,0.1,0.6,0.2,0.8,0.4v1.5c-0.1,0.6,0.3,1,0.9,1.1c0.1,0,0.2,0,0.3,0h5.1c0.1,0,0.2,0,0.2-0.1c0.1-0.2,0.2-0.4,0.2-0.7
	c0-0.1-0.1-0.2-0.2-0.3c-0.4-0.1-0.9-0.1-1.3-0.1L160.9,10.4z M171.9,0.5c0.3,0.1,0.7,0.4,0.9,0.6V9c0,0.9,0.1,1.7,0.2,2.6h0.7
	c0.3-1,0.4-2,0.5-3V1.3V0.6c0-0.1,0-0.3-0.2-0.3c-0.6-0.2-1.2-0.3-1.8-0.4c-0.1,0-0.2,0-0.2,0.1L171.9,0.5z M169.8,1.3
	c0.3,0.1,0.6,0.3,0.8,0.6v2.4c-0.4,0-0.9,0-1.3,0c0-0.4,0-0.7,0.1-1l0.2-0.6c0-0.1,0-0.1,0-0.2c-0.2-0.1-0.4-0.3-0.6-0.4
	c-0.1,0-0.2,0-0.2,0l-0.5,0.3c-0.5,0-1.5,0-2,0c-0.6-0.1-1.2-0.1-1.7-0.1c-0.1,0-0.1,0-0.1,0.1l-0.1,0.4c0.2,0.1,0.4,0.2,0.6,0.4
	l0.2,4.1c0,0.3,0.1,0.6,0.2,0.9h0.7c0.1-0.2,0.2-0.3,0.2-0.5h3.1c0.1-0.2,0.2-0.4,0.2-0.6c0-0.1,0-0.2-0.1-0.2l-0.2-0.1
	c0.1-0.4,0.1-0.9,0.2-1.4c0.4-0.1,0.9-0.1,1.3-0.1v3.3c0,0.8,0.1,1.6,0.1,2.4h0.7c0.3-0.9,0.4-1.8,0.4-2.8v-6V1.6
	c0-0.1,0-0.2-0.2-0.3c-0.5-0.2-1.1-0.3-1.6-0.4c-0.1,0-0.2,0-0.2,0.1L169.8,1.3z M166.2,3.3c0.6,0,1.3,0,1.9,0v3.4l-0.2,0.1
	c-0.4,0-1.1,0-1.6,0L166.2,3.3z M182.2,4.9c0.1-1.6-1-3-2.6-3.2c-1.6-0.1-3,1-3.2,2.6c-0.1,1.6,1,3,2.6,3.2c0.1,0,0.2,0,0.3,0
	C180.8,7.6,182.1,6.5,182.2,4.9C182.2,5,182.2,5,182.2,4.9L182.2,4.9z M180.7,4.9c-0.1,0.8-0.8,1.4-1.6,1.3
	c-0.8-0.1-1.4-0.8-1.3-1.6c0.1-0.8,0.7-1.3,1.5-1.3s1.4,0.6,1.5,1.4C180.7,4.8,180.7,4.9,180.7,4.9L180.7,4.9z M184.8,11.6
	c0.3-1,0.4-2,0.5-3.1V1.4V0.7c0-0.1,0-0.3-0.2-0.3c-0.6-0.2-1.3-0.3-1.9-0.4c-0.1,0-0.1,0-0.2,0.1l-0.2,0.4c0.4,0.1,0.7,0.4,1,0.7
	v7.7c0,0.6,0.1,2.2,0.1,2.6h0.9V11.6z M196.1,8.6c-0.1,0-0.4,0-0.8,0c0.6-1.9,1-3.9,1.2-5.9l0.2-0.5c0-0.1,0-0.1,0-0.2
	c-0.2-0.2-0.5-0.3-0.8-0.4c-0.1,0-0.2,0-0.3,0L195,1.9c-0.8,0-4,0.1-4.7,0.1c-0.5,0-0.9,0-1.4-0.1l-0.1,0.2c0,0.1,0,0.1,0.1,0.2
	c0.4,0.3,0.8,0.6,1.2,0.8c0.4-0.1,0.8-0.2,1.2-0.2c0.5,0,2.6-0.1,3.6-0.1c0,0.6,0,1.3-0.1,2.1c-1.1,0.2-3.6,0.3-4.9,0.4
	c-0.5,0-0.9,0-1.4-0.1l-0.1,0.2c0,0.1,0,0.1,0,0.1c0.4,0.3,0.8,0.6,1.2,0.8c0.3-0.1,0.7-0.2,1.1-0.2c1.1-0.1,2.9-0.3,4-0.5
	c-0.1,1-0.2,2.1-0.4,3.1c-2,0-4.9,0.1-5.5,0.1c-0.5,0-1,0-1.5-0.1l-0.1,0.2c0,0.1,0,0.1,0,0.2c0.4,0.4,0.8,0.7,1.3,0.9
	c0.5-0.1,0.9-0.2,1.4-0.2c0.7,0,5.7-0.1,6.5-0.1c0.4,0,1.2,0,1.5,0.1c0.2-0.1,0.3-0.4,0.3-0.6c0-0.1-0.1-0.2-0.2-0.3
	c-0.5-0.1-1-0.2-1.5-0.2L196.1,8.6z"/>
</svg>
