<?xml version="1.0" encoding="utf-8"?>
<!-- Generator: Adobe Illustrator 26.0.3, SVG Export Plug-In . SVG Version: 6.00 Build 0)  -->
<svg version="1.1" id="H1_ヘビロテ" xmlns="http://www.w3.org/2000/svg" xmlns:xlink="http://www.w3.org/1999/xlink" x="0px"
	 y="0px" viewBox="0 0 278.6 139.3" style="enable-background:new 0 0 278.6 139.3;" xml:space="preserve">
<style type="text/css">
	.st0{fill:#CE0037;}
	.st1{fill:#979797;}
	.st2{fill:#333333;}
</style>
<rect id="長方形_8" x="107.3" y="136.3" class="st0" width="64" height="3"/>
<g>
	<path d="M185.5,33.5c-0.1-0.7-0.5-0.8-0.9-0.2l-11.4,20.8l-12-20.8c-0.3-0.5-0.8-0.5-0.8,0.2l-2.4,19.8c-0.5,4.1-1.1,6.9-1.7,7.6
		h5.4c-0.5-0.7-0.6-3.4-0.2-7.6l0.9-9.6l9.7,16.8c0.2,0.4,0.6,0.4,0.8,0l9.1-16.9l0.9,9.8c0.4,4.1,0.3,6.8-0.2,7.6h7.2
		c-0.7-0.7-1.2-3.4-1.7-7.6L185.5,33.5z"/>
	<path d="M105.4,37.9h-6c0.5,0.6,0.8,3.1,0.8,6.8V54c0,3.7-0.3,6.1-0.8,6.8h6c-0.5-0.6-0.8-3.1-0.8-6.8v-9.3
		C104.7,40.9,105,38.5,105.4,37.9z"/>
	<path d="M201,57.7v-7.9c3.7,0,6.6,0.3,8.3,0.7v-3.6c-1.7,0.4-4.7,0.6-8.3,0.7v-7.2c4.5,0.1,7.8,0.4,9.3,0.9v-3.3H196
		c0.5,0.6,0.8,3.1,0.8,6.8V54c0,3.7-0.3,6.1-0.8,6.8h15.1v-4.3C210.2,57.2,206.6,57.6,201,57.7z"/>
	<path d="M83.9,49.6c-1.7-1.9-4.2-3.1-7-3.3l16.6-12.4h-7.4c0.1,1.4-2.5,3.9-7.2,7.6L73,45.9v-4.5c-0.1-4.1,0.2-6.9,0.8-7.6h-6.3
		c0.6,0.7,0.9,3.4,0.9,7.6v11.8c0,4.1-0.3,6.9-0.9,7.6h6.3c-0.6-0.7-0.9-3.4-0.9-7.6v-6.3c1,0.4,1.9,1.2,2.3,1.5
		c3.1,2.8,5.8,7.7,8.9,11c3.5,3.8,8.5,3.4,13.4,2.7C92.4,60.4,88.5,54.6,83.9,49.6z"/>
	<path d="M122.8,46.8c-3.9-1.9-5.2-2.8-5.2-4.4c0-1.2,1-2.8,3.9-2.8c3.4,0,5.1,2.8,5.6,3.9l0.6-4.5c-0.7,0-1.2-0.3-1.9-0.6
		c-1.1-0.5-2.9-0.9-4.3-0.9c-5.2,0-8.2,2.5-8.2,6.2c0,3.1,1.9,5,5.6,6.8c4,2,5.8,3,5.8,5.3c0,2.1-2.1,3.1-3.9,3.1
		c-3.7,0-5.8-3.4-6.8-6.1l-0.8,6.1c1.1,0,1.6,0.6,2.6,1c1.1,0.6,3.1,1.1,4.9,1.1c5.1,0,8.2-2.5,8.2-6.8
		C129.1,50.6,126.8,48.7,122.8,46.8z"/>
	<path d="M144.4,46.8c-3.9-1.9-5.2-2.8-5.2-4.4c0-1.2,1-2.8,3.9-2.8c3.4,0,5.1,2.8,5.6,3.9l0.6-4.5c-0.7,0-1.2-0.3-1.9-0.6
		c-1.1-0.5-2.9-0.9-4.3-0.9c-5.2,0-8.2,2.5-8.2,6.2c0,3.1,1.9,5,5.6,6.8c4,2,5.8,3,5.8,5.3c0,2.1-2.1,3.1-3.9,3.1
		c-3.7,0-5.8-3.4-6.8-6.1l-0.8,6.1c1.1,0,1.6,0.6,2.6,1c1.1,0.6,3.1,1.1,4.9,1.1c5.1,0,8.2-2.5,8.2-6.8
		C150.7,50.6,148.4,48.7,144.4,46.8z"/>
</g>
<g>
	<path class="st1" d="M123.2,9c0,0-0.1-0.1,0-0.2c1.4-1,2.5-2.3,3.3-3.7c-0.5,0.1-1.2,0.2-1.6,0.2c-0.3,0-0.7,0.1-0.9,0.2
		c-0.4-0.2-0.7-0.4-1-0.7c0,0-0.1-0.1,0-0.1l0.1-0.2c0.4,0,0.8,0,1.1,0c0.7,0,2-0.1,2.7-0.2c0.2-0.5,0.4-1,0.5-1.5
		c-0.6,0-1.5,0-1.8,0c-0.3,0-0.8,0.1-1,0.2c-0.4-0.2-0.8-0.5-1.1-0.7c-0.1-0.1-0.1-0.1,0-0.2l0.1-0.2c0.4,0,0.9,0.1,1.2,0.1
		c0.4,0,2.4,0,2.9-0.1l0.5-0.2c0.1,0,0.2,0,0.3,0c0.2,0.1,0.6,0.3,0.7,0.4c0.1,0,0.1,0.1,0,0.2L129,2.9c-0.5,2.3-2.6,4.8-5.4,6.3
		c-0.1,0-0.1,0-0.2,0L123.2,9z M130.7,11.6c-0.1-0.4-0.2-2.1-0.2-2.7V1.2c-0.2-0.3-0.6-0.5-1-0.7l0.1-0.4c0,0,0-0.1,0.2-0.1
		c0.6,0,1.5,0.2,1.9,0.4c0.1,0.1,0.2,0.2,0.2,0.3l0,0.7v7.1c0,0.8-0.2,2.3-0.5,3.1H130.7z"/>
	<path class="st1" d="M143.5,8.4c0.5,0,1.2,0.1,1.5,0.2c0.1,0,0.2,0.1,0.2,0.3c0,0.3-0.2,0.6-0.4,0.6c-0.3,0-1.1-0.1-1.5-0.1
		c-0.8,0-5.8,0-6.5,0.1c-0.3,0-1,0.2-1.4,0.3c-0.5-0.2-1-0.5-1.3-0.9c0,0-0.1-0.1,0-0.2l0.1-0.2c0.5,0.1,1.1,0.1,1.5,0.1
		c0.8,0,6.4-0.1,7.2-0.1L143.5,8.4z M134.9,6.8c0,0,0-0.1,0-0.1c2.1-1.2,3.6-2.8,4.3-4.4c-0.1-0.2-0.4-0.5-0.7-0.6l0.2-0.3
		c0-0.1,0.1-0.1,0.2-0.1c0.6,0.1,1.4,0.4,1.8,0.6c0.1,0.1,0.2,0.2,0.2,0.3c0,0.1,0,0.3-0.1,0.3c-0.2,0.4-0.4,0.8-0.7,1.2l2.1,1.1
		l0.8,0.1c0.3,0.2,0.8,0.6,1,0.8c0.2,0.2,0.3,0.3,0.2,0.4c0,0.3-0.3,0.5-0.5,0.5c-0.1,0-0.3-0.1-0.4-0.1l-3.8-2.1
		c-1.1,1.1-2.6,2.1-4.4,2.7c-0.1,0-0.1,0-0.2,0L134.9,6.8z"/>
	<path class="st1" d="M148.5,7.7c0,0.2-0.1,0.4-0.3,0.6h-0.8c-0.1-0.3-0.1-0.6-0.2-0.9L147,3.2c-0.1-0.2-0.4-0.3-0.6-0.4l0.1-0.4
		c0,0,0.1-0.1,0.1-0.1c0.5,0,1.4,0.1,1.8,0.1c0.6,0,2,0,2.6,0l0.5-0.3c0.1,0,0.2,0,0.3,0c0.2,0.1,0.6,0.3,0.7,0.4
		c0.1,0,0.1,0.1,0,0.2l-0.2,0.6c0,1.1-0.2,2.4-0.3,3.5l0.2,0.1c0.1,0,0.1,0.1,0.1,0.2c0,0.3-0.1,0.5-0.2,0.6L148.5,7.7z M148.5,6.8
		c0.6,0,1.7,0,2.2,0l0.2-0.1l0-3.4l-2.5,0L148.5,6.8z M154.4,11.6c-0.1-0.4-0.2-2.1-0.2-2.7V1.2c-0.2-0.3-0.6-0.5-1-0.7l0.1-0.4
		c0,0,0-0.1,0.2-0.1c0.6,0,1.5,0.2,1.9,0.4c0.1,0.1,0.2,0.2,0.2,0.3l0,0.7v7.1c0,0.8-0.2,2.3-0.5,3.1H154.4z"/>
</g>
<g>
	<path class="st2" d="M34.6,106c-0.1-0.7-0.2-3.2-0.2-4.1v-2.6c-2.3,0.8-5.2,1.3-7.2,1.5c-0.3,0-0.5,0-0.7,0c-0.9,0-1.5-0.5-1.8-1.3
		c-0.1-0.2-0.1-0.6-0.1-1V93c-0.3-0.3-0.8-0.5-1.3-0.7l0.1-0.6c0-0.1,0.1-0.2,0.3-0.2c0.8,0,2.2,0.1,2.8,0.2c0.2,0,0.3,0.2,0.3,0.4
		l0,1v5.5c0,0.3,0.1,0.4,0.4,0.4c2,0,5-0.4,7.3-1V90c-0.3-0.4-0.9-0.8-1.5-1.1l0.2-0.6c0-0.1,0.1-0.1,0.3-0.1c0.9,0,2.3,0.3,3,0.6
		c0.2,0.1,0.3,0.3,0.3,0.5l-0.1,1.1v5.3l1-0.1l0.6-0.4c0.5,0,1.3,0,1.7,0.1c0.2,0.1,0.4,0.2,0.4,0.4c0,0.4-0.1,0.8-0.2,1
		c-0.1,0.1-0.4,0.2-0.5,0.2L36.5,97v4.3c0,1.2-0.3,3.5-0.7,4.8H34.6z"/>
	<path class="st2" d="M58,106c-0.1-0.7-0.2-3.2-0.2-4.1v-2.5c-2.4,0.8-5.3,1.4-7.3,1.6c-0.3,0-0.6,0-0.8,0c-0.9,0-1.5-0.5-1.8-1.3
		c-0.1-0.2-0.1-0.6-0.1-1v-5.9c-0.3-0.3-0.7-0.6-1.2-0.7l0.1-0.6c0-0.1,0.1-0.1,0.2-0.1c0.7,0,2.2,0.1,2.9,0.2
		c0.7,0,2.7-0.1,3.2-0.2l0.6-0.4c0.5,0,1.4,0,1.8,0.1c0.2,0,0.3,0.2,0.3,0.4c0,0.5-0.1,0.8-0.3,1c-0.1,0.1-0.2,0.1-0.4,0.1L50,93
		v2.3v3.7c0,0.2,0.1,0.4,0.4,0.4c2,0,5.2-0.4,7.5-1V90c-0.3-0.4-0.9-0.8-1.5-1.1l0.2-0.6c0-0.1,0.1-0.1,0.3-0.1c0.9,0,2.3,0.3,3,0.6
		c0.2,0.1,0.3,0.3,0.3,0.5l-0.1,1.1v5.5l1-0.1l0.6-0.4c0.5,0,1.3,0,1.7,0.1c0.2,0,0.4,0.2,0.4,0.4c0,0.4-0.1,0.8-0.2,1
		c-0.1,0.1-0.4,0.2-0.5,0.2l-2.9,0.1v4.1c0,1.2-0.3,3.5-0.7,4.8H58z"/>
	<path class="st2" d="M77.4,103.9l0.3,0.2c0.1,0.1,0.2,0.2,0.2,0.3c0,0.4-0.2,0.8-0.3,0.9l-6.8,0.1c-0.1,0.2-0.2,0.4-0.4,0.6h-1.2
		c-0.1-0.3-0.3-0.8-0.3-1.2l-0.3-3.7c-0.2-0.3-0.6-0.5-1.1-0.7l0.1-0.6c0-0.1,0.1-0.1,0.2-0.1c0.7,0,2.1,0.1,2.8,0.2l1.3,0
		c-0.1-0.4-0.1-0.8-0.1-1.1V98c-1.6,0-3,0.1-3.4,0.1c-0.5,0-1.6,0.2-2.1,0.4c-0.7-0.3-1.6-0.8-2.1-1.3c-0.1-0.1-0.1-0.2-0.1-0.3
		l0.2-0.3c0.7,0.1,1.7,0.2,2.4,0.2c1.2,0,9.9-0.1,11.2-0.2l0.8-0.4c0.8,0,1.9,0.2,2.3,0.4c0.2,0.1,0.3,0.2,0.3,0.4
		c0,0.5-0.3,0.9-0.6,1C80.6,98,79.3,98,78.8,98l-4.5,0v0.5c0,0.5-0.1,1-0.2,1.5l1.8-0.1l0.8-0.3c0.1,0,0.3,0,0.4,0
		c0.3,0.1,0.9,0.4,1.1,0.5c0.1,0.1,0.1,0.2,0.1,0.3l-0.3,0.8C77.8,102.1,77.6,103.1,77.4,103.9z M73,95.5c-2.6,0-4.4-1.4-4.4-3.2
		c0-1.8,1.8-3.2,4.4-3.2c2.6,0,4.4,1.4,4.4,3.2C77.5,94.1,75.7,95.5,73,95.5z M73,90.4c-1.4,0-2.3,0.7-2.3,1.9
		c0,1.1,0.9,1.8,2.3,1.8c1.3,0,2.3-0.7,2.3-1.8C75.3,91.1,74.4,90.4,73,90.4z M70.9,104.1c1.3,0,3.3,0,4.4-0.1l0.4-0.1l0-2.6
		c-1.5,0-3.4,0-4.8,0.1L70.9,104.1z"/>
	<path class="st2" d="M97.3,95.9c0.8,0,1.9,0.2,2.3,0.4c0.2,0.1,0.3,0.2,0.3,0.4c0,0.4-0.3,0.8-0.6,0.9c-0.5-0.1-1.8-0.1-2.3-0.1
		c-1.3,0-9,0.1-10,0.1c-0.5,0-1.6,0.2-2.1,0.4c-0.7-0.3-1.6-0.8-2.1-1.2c-0.1-0.1-0.1-0.2-0.1-0.3l0.2-0.3c0.7,0.1,1.7,0.2,2.4,0.2
		c1.2,0,9.9-0.1,11.2-0.2L97.3,95.9z M89,102.8v0.5v0.7c0,0.3,0.1,0.4,0.4,0.4c1.2,0,4.1,0,5.3,0l0.6-0.3c0.6,0,1.4,0.1,1.8,0.2
		c0.2,0.1,0.3,0.2,0.3,0.4c0,0.4-0.1,0.8-0.3,0.9c-0.1,0.1-0.2,0.1-0.3,0.1l-8.2,0.1c-1.3,0-1.7-0.5-1.7-1.4v-1.5
		c-0.2-0.3-0.6-0.4-1.1-0.6l0.1-0.5c0-0.1,0.1-0.1,0.2-0.1c0.7,0,2.3,0,2.9,0.1c1.1,0,3.9,0,4.5-0.1l0.4-0.1c0-0.4,0.1-1.1,0-1.4
		c-1.2,0-4.2,0-4.8,0.1c-0.4,0-1.2,0.1-1.6,0.3c-0.6-0.3-1.2-0.7-1.6-1.1c-0.1-0.1-0.1-0.1-0.1-0.2l0.1-0.3c0.6,0.1,1.4,0.2,1.9,0.2
		c0.9,0,5.4-0.1,6.5-0.1l0.7-0.3c0.1-0.1,0.2-0.1,0.4,0c0.3,0.1,0.8,0.3,1.1,0.4c0.1,0.1,0.1,0.2,0.1,0.3l-0.3,0.6
		c0,0.5-0.2,1.2-0.4,1.6l0.4,0.2c0.1,0,0.1,0.1,0.1,0.2c0,0.3-0.1,0.6-0.2,0.8L89,102.8z M91.4,95.1c-2.6,0-4.4-1.2-4.4-3
		c0-1.8,1.8-3,4.4-3c2.6,0,4.4,1.2,4.4,3C95.8,93.8,94,95.1,91.4,95.1z M91.4,90.3c-1.3,0-2.3,0.6-2.3,1.7c0,1,0.9,1.7,2.3,1.7
		c1.3,0,2.2-0.6,2.2-1.7C93.6,91,92.7,90.3,91.4,90.3z"/>
	<path class="st2" d="M115.3,97.6c0.3,0.5,0.7,1.2,0.9,1.6c0.1,0.4,0.1,0.6,0.1,0.8c-0.2,0.4-0.7,0.5-1,0.4
		c-0.2-0.1-0.4-0.3-0.5-0.4l-3.1-3.6c-1.1,1.7-2.7,3.3-4.7,4.6c-0.1,0.1-0.2,0.1-0.3,0l-0.4-0.3c-0.1-0.1-0.1-0.1,0-0.2
		c2.6-2.5,4.3-5.6,4.8-8.3c-0.2-0.4-0.6-0.8-1.1-1l0.3-0.6c0.1-0.1,0.1-0.1,0.3-0.1c0.8,0.1,2.2,0.5,2.7,0.8
		c0.2,0.1,0.3,0.3,0.3,0.4c0,0.2,0,0.4-0.1,0.5c-0.2,1-0.6,2-1.1,3l1.9,2L115.3,97.6z M118.1,106c-0.1-0.7-0.2-3.2-0.2-4.1V90
		c-0.3-0.4-0.9-0.8-1.5-1.1l0.2-0.6c0-0.1,0.1-0.1,0.3-0.1c0.9,0,2.3,0.3,3,0.6c0.2,0.1,0.3,0.3,0.3,0.5l-0.1,1.1v5.5l1-0.1l0.6-0.4
		c0.5,0,1.3,0,1.7,0.1c0.2,0.1,0.4,0.2,0.4,0.4c0,0.4-0.1,0.8-0.2,1c-0.1,0.1-0.4,0.2-0.5,0.2l-2.9,0.1v4.1c0,1.2-0.3,3.5-0.7,4.8
		H118.1z"/>
	<path class="st2" d="M138.3,95.3v0.3c0,1.1-0.3,2.9-0.7,3.8h-1.2c-0.1-0.4-0.1-1.3-0.2-2.1c-2.4,0.8-5.5,1.3-7.7,1.5
		c-0.2,0-0.5,0-0.7,0c-0.8,0-1.4-0.5-1.6-1.2c-0.1-0.2-0.1-0.6-0.1-1v-1.9c-0.3-0.2-0.6-0.4-1.1-0.6l0.1-0.5c0-0.1,0.1-0.1,0.2-0.1
		c0.7,0,2.3,0,2.9,0.1c0.7,0,2.3-0.1,2.8-0.1l0.3-0.1c0-0.4,0-1.7,0-2.1c-0.8,0-2.6,0-3,0.1c-0.4,0-1,0.1-1.5,0.3
		c-0.6-0.3-1.1-0.7-1.5-1.1c-0.1-0.1-0.1-0.1-0.1-0.2l0.1-0.3c0.5,0.1,1.3,0.1,1.8,0.1c0.7,0,3.6,0,4.4-0.1l0.8-0.3
		c0.1-0.1,0.2-0.1,0.4,0c0.3,0.1,0.8,0.4,1.1,0.5c0.1,0.1,0.1,0.2,0,0.3l-0.2,0.7c0,0.6-0.2,1.6-0.4,2.1l0.3,0.2
		c0.1,0.1,0.2,0.1,0.2,0.2c0,0.3-0.1,0.6-0.2,0.8l-5.3,0.2v0.2v1.8c0,0.2,0.1,0.4,0.4,0.4c2.1,0,5.3-0.4,7.6-1v0V90
		c-0.3-0.4-0.8-0.8-1.5-1.1l0.2-0.7c0-0.1,0.1-0.1,0.3-0.1c0.9,0,2.3,0.3,2.9,0.6c0.2,0.1,0.3,0.3,0.3,0.5l-0.1,1.1V94l1-0.1
		l0.6-0.4c0.5,0,1.3,0,1.7,0.1c0.2,0.1,0.4,0.2,0.4,0.4c0,0.4-0.1,0.8-0.2,1c-0.1,0.1-0.4,0.2-0.5,0.2L138.3,95.3z M134,106.1
		c-2.3,0-4.2-1.3-4.2-3.5c0-2,1.9-3.3,4.2-3.3c2.3,0,4.2,1.2,4.2,3.3C138.3,104.8,136.4,106.1,134,106.1z M134,100.8
		c-1.1,0-2,0.6-2,1.8c0,1.1,0.9,1.8,2,1.8s2.1-0.6,2.1-1.8C136.1,101.4,135.2,100.8,134,100.8z"/>
	<path class="st2" d="M151.7,92.6c0.6,0,1.4,0.1,1.8,0.3c0.1,0.1,0.2,0.2,0.2,0.4c0,0.4-0.2,0.9-0.4,1c-0.3-0.1-1.3-0.1-1.7-0.1
		c-0.7,0-5,0.1-5.7,0.1c-0.4,0-1.1,0.1-1.4,0.3c-0.6-0.3-1.2-0.8-1.6-1.2c-0.1-0.1-0.1-0.1,0-0.2l0.1-0.3c0.6,0.1,1.4,0.1,1.9,0.1
		c0.8,0,5.5-0.1,6.3-0.1L151.7,92.6z M148.5,101.7c-2.1,0-4-1.2-4-3.3s1.9-3.3,4-3.3s4,1.3,4,3.3S150.6,101.7,148.5,101.7z
		 M145.6,89.9c1.7,0.3,3.5,0.4,4.7,0.4c0.2,0,0.3,0,0.4,0.2c0.1,0.3,0.1,1-0.1,1.2c-0.1,0.1-0.2,0.1-0.4,0.1c-0.8,0-2.3,0.1-3.1,0.1
		c-0.2,0-0.4,0-0.5-0.1c-0.4-0.3-0.9-0.9-1.2-1.4c-0.1-0.1-0.1-0.2,0-0.3L145.6,89.9z M148.5,96.5c-1,0-1.9,0.7-1.9,1.9
		c0,1.2,0.9,1.9,1.9,1.9c1,0,1.9-0.7,1.9-1.9C150.4,97.2,149.5,96.5,148.5,96.5z M154.8,106c-0.1-0.7-0.2-3.2-0.2-4.1V90
		c-0.3-0.4-0.9-0.8-1.5-1.1l0.2-0.6c0-0.1,0.1-0.1,0.3-0.1c0.9,0,2.3,0.3,3,0.6c0.2,0.1,0.3,0.3,0.3,0.5l-0.1,1.1v6l1-0.1l0.6-0.4
		c0.5,0,1.3,0,1.7,0.1c0.2,0.1,0.4,0.2,0.4,0.4c0,0.4-0.1,0.8-0.2,1c-0.1,0.1-0.4,0.2-0.5,0.2l-2.9,0.1v3.6c0,1.2-0.3,3.5-0.7,4.8
		H154.8z"/>
	<path class="st2" d="M175.8,96.8c0.8,0,1.9,0.2,2.3,0.4c0.2,0.1,0.3,0.2,0.3,0.4c0,0.5-0.3,0.9-0.6,1c-0.5-0.1-1.8-0.1-2.3-0.1
		c-1.3,0-8.9,0.1-10,0.1c-0.5,0-1.6,0.2-2.1,0.4c-0.7-0.3-1.6-0.8-2.1-1.3c-0.1-0.1-0.1-0.2-0.1-0.3l0.2-0.3
		c0.7,0.1,1.7,0.2,2.4,0.2c1.2,0,9.9-0.1,11.2-0.2L175.8,96.8z M172.8,93.9l0.7-0.4c0.6,0,1.5,0.1,1.9,0.2c0.2,0.1,0.3,0.2,0.3,0.4
		c0,0.5-0.2,0.9-0.3,1c-0.1,0.1-0.2,0.1-0.3,0.1l-8.3,0.1c-1.3,0-1.9-0.6-1.9-1.8v-2.6c-0.3-0.3-0.7-0.5-1.2-0.7l0.1-0.6
		c0-0.1,0.1-0.1,0.3-0.1c0.8,0,2.1,0.1,2.7,0.2c0.2,0.1,0.3,0.2,0.3,0.5l0,1v2.3c0,0.3,0.1,0.5,0.5,0.5
		C168.8,94,171.6,94,172.8,93.9z M167.3,103.5c0,0.3,0.1,0.5,0.5,0.5c1.2,0,3.8,0,5-0.1l0.8-0.4c0.6,0,1.6,0.1,2,0.2
		c0.2,0.1,0.3,0.2,0.3,0.4c0,0.5-0.2,0.9-0.3,1c-0.1,0.1-0.2,0.1-0.4,0.1l-8.2,0.1c-1.2,0-1.7-0.6-1.7-1.7v-2
		c-0.3-0.2-0.8-0.5-1.3-0.7l0.1-0.5c0-0.1,0.1-0.2,0.3-0.2c0.8,0,2.1,0.1,2.7,0.2c0.2,0.1,0.3,0.2,0.3,0.5l0,1v1V103.5z"/>
	<path class="st2" d="M193.7,97.6c0.3,0.5,0.7,1.2,0.9,1.6c0.1,0.4,0.1,0.6,0.1,0.8c-0.2,0.4-0.7,0.5-1,0.4
		c-0.2-0.1-0.4-0.3-0.5-0.4l-3.1-3.6c-1.1,1.7-2.7,3.3-4.7,4.6c-0.1,0.1-0.2,0.1-0.3,0l-0.4-0.3c-0.1-0.1-0.1-0.1,0-0.2
		c2.6-2.5,4.3-5.6,4.8-8.3c-0.2-0.4-0.6-0.8-1.1-1l0.3-0.6c0.1-0.1,0.1-0.1,0.3-0.1c0.8,0.1,2.2,0.5,2.7,0.8
		c0.2,0.1,0.3,0.3,0.3,0.4c0,0.2,0,0.4-0.1,0.5c-0.2,1-0.6,2-1.1,3l1.9,2L193.7,97.6z M196.5,106c-0.1-0.7-0.2-3.2-0.2-4.1V90
		c-0.3-0.4-0.9-0.8-1.5-1.1l0.2-0.6c0-0.1,0.1-0.1,0.3-0.1c0.9,0,2.3,0.3,3,0.6c0.2,0.1,0.3,0.3,0.3,0.5l-0.1,1.1v5.5l1-0.1l0.6-0.4
		c0.5,0,1.3,0,1.7,0.1c0.2,0.1,0.4,0.2,0.4,0.4c0,0.4-0.1,0.8-0.2,1c-0.1,0.1-0.4,0.2-0.5,0.2l-2.9,0.1v4.1c0,1.2-0.3,3.5-0.7,4.8
		H196.5z"/>
	<path class="st2" d="M206.6,94.7v0.2v1.8c0,0.2,0.1,0.4,0.4,0.4c2.1,0,5.3-0.4,7.6-1V96v-6c-0.3-0.4-0.8-0.8-1.5-1.1l0.2-0.7
		c0-0.1,0.1-0.1,0.3-0.1c0.9,0,2.3,0.3,2.9,0.6c0.2,0.1,0.3,0.3,0.3,0.5l-0.1,1.1v3.4l1-0.1l0.6-0.4c0.5,0,1.3,0,1.7,0.1
		c0.2,0.1,0.4,0.2,0.4,0.4c0,0.4-0.1,0.8-0.2,1c-0.1,0.1-0.4,0.2-0.5,0.2l-2.9,0.1v0.4c0,1.1-0.3,2.8-0.7,3.7h-1.2
		c-0.1-0.4-0.1-1.2-0.2-1.9c-2.4,0.8-5.5,1.3-7.7,1.5c-0.2,0-0.5,0-0.7,0c-0.8,0-1.4-0.5-1.6-1.2c-0.1-0.2-0.1-0.6-0.1-1v-1.8
		c-0.3-0.2-0.6-0.4-1.1-0.6l0.1-0.5c0-0.1,0.1-0.1,0.2-0.1c0.7,0,2.3,0,2.9,0.1c0.7,0,2.3-0.1,2.8-0.1l0.3-0.1c0-0.4,0-1.6,0-2
		c-0.8,0-2.6,0-3,0c-0.4,0-1,0.1-1.5,0.3c-0.6-0.3-1.1-0.7-1.5-1.1c-0.1-0.1-0.1-0.1-0.1-0.2l0.1-0.3c0.5,0.1,1.3,0.2,1.8,0.2
		c0.7,0,3.6,0,4.4-0.1l0.8-0.3c0.1-0.1,0.2-0.1,0.4,0c0.3,0.1,0.8,0.4,1.1,0.6c0.1,0.1,0.1,0.1,0,0.3l-0.2,0.7c0,0.6-0.2,1.5-0.4,2
		l0.3,0.2c0.1,0.1,0.2,0.1,0.2,0.2c0,0.3-0.1,0.6-0.2,0.8L206.6,94.7z M216.2,104l0.4,0.2c0.1,0.1,0.2,0.2,0.2,0.3
		c0,0.4-0.2,0.8-0.3,1l-6.4,0.1c-0.1,0.2-0.2,0.4-0.4,0.6h-1.2c-0.2-0.3-0.3-0.8-0.3-1.2l-0.3-3.7c-0.2-0.3-0.6-0.5-1.1-0.7l0.1-0.6
		c0-0.1,0.1-0.1,0.2-0.1c0.7,0,2.1,0.1,2.8,0.2c1.1,0,3.6-0.1,4.6-0.1l0.8-0.3c0.1,0,0.3,0,0.4,0c0.3,0.1,0.9,0.4,1.1,0.5
		c0.1,0.1,0.1,0.1,0.1,0.3l-0.3,0.8C216.6,102.1,216.4,103.1,216.2,104z M210.1,104.1c1.2,0,3,0,4-0.1l0.4-0.1l0-2.6
		c-1.4,0-3.1,0.1-4.4,0.1L210.1,104.1z"/>
	<path class="st2" d="M231.7,104.9c-0.1-0.7-0.2-2.9-0.2-3.7v-4.7c-0.6,0-1.2,0.1-1.6,0.1h-0.1c-0.3,1.9-1.9,3.2-3.9,3.2
		c-2.3,0-4-1.6-4-3.9c0-2.3,1.7-3.9,4-3.9c2.1,0,3.7,1.3,3.9,3.3l1.6,0v-4.1c-0.2-0.4-0.7-0.7-1.3-0.9l0.2-0.6
		c0-0.1,0.1-0.1,0.3-0.1c0.7,0,2,0.3,2.5,0.6c0.2,0.1,0.2,0.2,0.2,0.5l-0.1,0.9v9.2c0,1.1-0.3,3.2-0.6,4.3H231.7z M225.9,93.6
		c-1.1,0-1.9,0.9-1.9,2.3c0,1.4,0.8,2.3,1.9,2.3c1.1,0,1.9-0.9,1.9-2.3C227.8,94.4,227,93.6,225.9,93.6z M235.1,106
		c-0.1-0.7-0.2-3.1-0.2-4V89.9c-0.2-0.4-0.8-0.8-1.3-1l0.2-0.6c0-0.1,0.1-0.1,0.3-0.1c0.8,0,2.1,0.3,2.7,0.6
		c0.2,0.1,0.3,0.2,0.3,0.5l-0.1,1v11.2c0,1.2-0.3,3.4-0.7,4.6H235.1z"/>
	<path class="st2" d="M240.2,101.6c-0.1-0.1-0.1-0.1,0-0.3c2.7-2.3,4.7-5.6,5.4-8.3c-0.7,0-1.8,0-2.1,0.1c-0.4,0-1.1,0.1-1.5,0.3
		c-0.5-0.2-1.1-0.6-1.5-1c-0.1-0.1-0.1-0.1-0.1-0.2l0.1-0.3c0.5,0.1,1.2,0.1,1.7,0.1c0.6,0,3,0,3.8-0.1l0.6-0.4
		c0.1-0.1,0.3-0.1,0.4,0c0.3,0.1,0.9,0.4,1.1,0.6c0.1,0.1,0.1,0.2,0,0.3l-0.3,0.6c-0.2,0.9-0.6,1.8-1.1,2.7h0.4c0.5,0,1.7,0,2.4-0.1
		v-4.4c-0.2-0.4-0.7-0.7-1.3-0.9l0.2-0.6c0-0.1,0.1-0.1,0.3-0.1c0.8,0,2,0.3,2.5,0.6c0.2,0.1,0.2,0.2,0.2,0.5l-0.1,0.9v9.2
		c0,1.1-0.2,3.2-0.6,4.3H250c-0.1-0.7-0.2-2.9-0.2-3.7v-4.5c-0.5,0-1.2,0-1.5,0.1c-0.3,0-0.9,0.2-1.2,0.3c-0.3-0.1-0.5-0.3-0.7-0.4
		c-1.3,2-3.2,3.9-5.4,5.2c-0.1,0.1-0.2,0.1-0.3,0.1L240.2,101.6z M253.4,106c-0.1-0.7-0.2-3.1-0.2-4V89.9c-0.2-0.4-0.8-0.8-1.3-1
		l0.2-0.6c0-0.1,0.1-0.1,0.3-0.1c0.8,0,2.1,0.3,2.7,0.6c0.2,0.1,0.3,0.2,0.3,0.5l-0.1,1v11.2c0,1.2-0.3,3.4-0.7,4.6H253.4z"/>
</g>
</svg>
